<svg xmlns="http://www.w3.org/2000/svg" viewBox="0 0 6257.44 3150.78"><defs><style>.cls-1{fill:#5c61af;}.cls-2,.cls-6{fill:#fff;}.cls-3,.cls-4{fill:#424684;}.cls-4,.cls-6{font-size:72px;font-family:Asul-Bold, Asul;font-weight:700;}.cls-5{letter-spacing:-0.03em;}</style></defs><g id="Calque_1" data-name="Calque 1"><rect class="cls-1" x="1887.82" y="21.96" width="221.36" height="324"/><rect class="cls-1" x="2398.71" width="232.73" height="324"/><path class="cls-2" d="M2046.42,485.54a26.52,26.52,0,0,0,3.84-2.92c.45-.42.85-.84,1.23-1.27.58,2.3,6.18,7.63,6.33,7.9s.17.43.33.81c-3,2.48-6.06,5.16-10.4,7-.49-1.27-.94-2.62-1.27-3.54C2046,492.07,2046.27,487.49,2046.42,485.54Z" transform="translate(482.17 -188.67)"/><path class="cls-2" d="M2019.45,408c-1.83-.13-7.81-3.51-10.87-5.12a17.53,17.53,0,0,1-1.92-1.27l.38-.5c2.06-2.95,3.91-5.45,5.58-7.87,2.09.29,4.25.57,5.86,2.38,2.86,3.22,13.57,9.07,15.59,10.27-2.89,2.73-5.14,5-6.92,6.92,0-.25,0-.39,0-.39S2021.29,408.14,2019.45,408Z" transform="translate(482.17 -188.67)"/><path class="cls-2" d="M2017.06,462.6a30.7,30.7,0,0,1,2.69-8.07s.23-.39.68-1c1.21.88,2.44,1.89,3.29,2.55s2.49,3.23,3.6,5.16a9.21,9.21,0,0,0-.53,1.42C2024.77,461.87,2019,462.45,2017.06,462.6Z" transform="translate(482.17 -188.67)"/><path class="cls-2" d="M2033.73,453.5a7.91,7.91,0,0,0-2.44,2c-.16.18-.29.34-.43.52-.42-1.77-4.92-5.57-6.55-7a25.49,25.49,0,0,1,8.73-5.64c.21.56.39,1.08.56,1.5C2034.21,446.51,2033.82,452.28,2033.73,453.5Z" transform="translate(482.17 -188.67)"/><path class="cls-2" d="M2054.28,267.81c-7.15,4-20.82-3-21.47-3.49s-3.65-2.11-3.88-3.51c-5.91-11.94,2.27-21,9.34-29.85-17.45,11.57-15.3,24.51-15.3,24.51s3.51,16.76,4.74,19.4c.93,2,5,5.94,8.36,9.14-.83.17-7.33,1.6-8.52,2.71s-7.92,3.35-11.22,4.52-18.29,3.09-18.29,3.09v.1c-1.45-4.68-2.66-9.54-3.26-12.5-1.08-5.37,2.86-20.2,3.94-24.34.25-1,5.77-10.46,5.77-10.46s1.3-2.9,1.57-3.62,2.31-9.31,2-10.64c-.22-1-3-2.77-8.41-5.57-2.46-6.26,4.25-4.9,4.25-4.9s8.54,4,9.3,2.22.94-1.66-.94-4.64c-6.75-9.79-3.13-10.81-3.13-10.81s1.12-1.45,4.88-1.66,7.29,9.53,9.93,9.7,3.58-7,3-11.28,4.21-5.36,5.6-5.57,2.93-.72,2.64,5.81-.14,5.25.89,6.4c2.42,1.11,4.38-7.57,5.82-10.55-1.7-1.19,8.85-6.81,6.62,2.64s.53,8.42,2.68,10.13c1,10.8,4.57,11,10.92,9.61s7.25,1.28,8.68,6.47c6.89,11.32,4,6.64,16.73,14.3-5.46,4.59-1.7,2.3-3.76,3.66,1.88,2.55,23.89,11,26,9.7a5,5,0,0,1,4.48,0c.1.19.31.55.71,1.23,1.25,2.13-4.38,9.28-4.38,9.28s-3.32,1.1-5.46-.94c-7.07-3.91-33.47-5.61-33.47-5.61S2062.07,266.53,2054.28,267.81Z" transform="translate(482.17 -188.67)"/><path class="cls-2" d="M2076.5,344.87s-10.58-1.4-12.73-.7-12,.22-16.92.08c-4.46-.13-23.23-3.76-25.82-4.26-.35-1.14-.74-2.41-1.2-3.89-.29-.84-.59-1.64-.9-2.44,8.07,2.83,10.79-3.44,18.66-2.38,7,.94,26.79-1.16,27.74-1.14a82.78,82.78,0,0,0,9.44.18,50.4,50.4,0,0,1,2.36,15.16C2076.74,345.08,2076.5,344.87,2076.5,344.87Z" transform="translate(482.17 -188.67)"/><path class="cls-2" d="M2001.28,419.47a23.52,23.52,0,0,1-2.88-2.24c1.83-3.9,3.85-8,5.12-10.56,4.38,3.6,14.06,8.79,14.5,9.15s2.21,2.05,4,3.3c-2.2,3.2-2.81,5.13-5,7.92-.18.23-.35.48-.53.73-1.67-1.22-3.64-2.52-4.59-2.64C2010,424.91,2004.24,421.24,2001.28,419.47Z" transform="translate(482.17 -188.67)"/><path class="cls-2" d="M2058.55,481.73c-1.05-1-2.76-4.71-3.62-6.68a16,16,0,0,0-.12-7.78,1.68,1.68,0,0,1,.91.57c1.32,1.79,9.4,4.06,9.67,4.24.11.07.34.28.66.53a28.29,28.29,0,0,1-3.52,12.74C2061.15,484.26,2059.56,482.68,2058.55,481.73Z" transform="translate(482.17 -188.67)"/><path class="cls-2" d="M2013.43,477.3a25.08,25.08,0,0,0,4,5.84l-.14.1c-1.32,1.22-8,3.22-11.26,4.31a27.78,27.78,0,0,1-4,.79c-5.91-4.54-8.3-9.18-9.36-12.52,6,.64,14.74.47,15.24.55A50.68,50.68,0,0,0,2013.43,477.3Z" transform="translate(482.17 -188.67)"/><path class="cls-2" d="M2035.8,489.3a27,27,0,0,0,4.33-.91,1.84,1.84,0,0,1,.27,1.56c-.61,1.59.86,6.51,1.55,8.79a42.28,42.28,0,0,1-12.81.07l1-2.09C2030.83,495.35,2034.49,490.88,2035.8,489.3Z" transform="translate(482.17 -188.67)"/><path class="cls-2" d="M2032.09,471.34a34.19,34.19,0,0,1,1.27,6,17.4,17.4,0,0,1-3.59.11,24.63,24.63,0,0,1-3.1-.4,1.31,1.31,0,0,1,.58-.94c.87-.52,2-2.77,2.79-4.51A6.87,6.87,0,0,0,2032.09,471.34Z" transform="translate(482.17 -188.67)"/><path class="cls-2" d="M2058.31,323.07c-2,1-11.83,1.86-16.73,2.4s-26.51-.7-26.51-.7,0,.09,0,.21c-1.19-2.3-2.4-4.36-3.59-6.24,6,.34,8.06-4.58,14.66-4.48s24.21-4,25.07-4c1.15-.1,8.3-.33,10.62-1.46,2.43,2.87,5,6.11,7.51,9.77.78,1.27,1.49,2.54,2.14,3.79L2071,322S2060.33,322.08,2058.31,323.07Z" transform="translate(482.17 -188.67)"/><path class="cls-2" d="M2010.24,464.52c0,.13,0,.26,0,.39,0,.36.06.7.09,1a24.57,24.57,0,0,0-.57,2.73c-1.94-.09-4-.09-4.75.27-1.65.78-8.61.78-12.1.88a12.57,12.57,0,0,1-1.48-.08,101,101,0,0,1-1.48-11.87c5.41,2.24,15.62,4.54,16.13,4.76S2008.38,463.8,2010.24,464.52Z" transform="translate(482.17 -188.67)"/><path class="cls-2" d="M2026.71,489a25.78,25.78,0,0,0,2.94.42c-.14,1.32,0,2.78-1.22,3.9a24.79,24.79,0,0,0-3.28,4.85c-2-.37-4.12-.84-6.39-1.44a69.85,69.85,0,0,1-9.22-3.79c5.65-1.24,12.47-3.43,12.93-3.49S2024.83,489.29,2026.71,489Z" transform="translate(482.17 -188.67)"/><path class="cls-2" d="M2044,304.53c-1.72,1.12-10.54,3-14.92,4-3.67.85-18.9,1.9-23.1,2.17a70,70,0,0,1-3.88-6,30,30,0,0,1-1.54-3.27c7,2.62,7.85-4.24,13.75-4.4,4.9-.13,18.27-4.8,18.92-4.91,1-.17,8.1-.79,8.54-2.46,2,1.79,7.58,5.7,14.68,13.08-.64-.39-1-.59-1-.59S2045.69,303.41,2044,304.53Z" transform="translate(482.17 -188.67)"/><path class="cls-2" d="M2010,449.24l.21.16c-.14,2-.21,4.09-.23,6.28-1.87-.57-3.9-1.08-4.77-.91-1.79.36-8.53-1.3-11.94-2a24.35,24.35,0,0,1-3.1-1.06c.12-3.55.27-7.76.59-10.16.12-.89.32-2,.57-3.16a6,6,0,0,1,2.12,1.36C1996.75,443,2009.47,448.87,2010,449.24Z" transform="translate(482.17 -188.67)"/><path class="cls-2" d="M2023,368.29c.18-1.09.32-2.17.43-3.22,5.46,3.22,10.14-.28,16.28,3.15,5.68,3.18,22.77,8,25.7,8.88a89.78,89.78,0,0,1-9.74,10c-3.27-1.07-10.31-4.66-14.11-6.51C2038.37,379.09,2028.16,372,2023,368.29Z" transform="translate(482.17 -188.67)"/><path class="cls-2" d="M2045,454.15a22,22,0,0,0-2.11-.81c-1.15-1.61-3.71-3.48-3.16-5,.41-1.11-.22-3.82-.88-6.13a23.83,23.83,0,0,1,15.05,4.08c-.61.92-1.24,1.8-1.69,2.46C2051.19,450.26,2045.83,453.63,2045,454.15Z" transform="translate(482.17 -188.67)"/><path class="cls-2" d="M2025,393.2a75.84,75.84,0,0,1-8.36-6.47c.51-1,1-2,1.46-3.09a43.14,43.14,0,0,0,2.44-5.6c4.44,3,9.36,1.13,14.31,5.32,2.82,2.39,9.23,6,14.68,8.91-3.56,3-6.68,5.72-9.39,8.14-1.62-1-3.39-2-4.26-2.1C2034,398.19,2028,394.81,2025,393.2Z" transform="translate(482.17 -188.67)"/><path class="cls-2" d="M1999.75,436.9a58.35,58.35,0,0,1-7-4.65c.69-2.6,1.44-5.08,2-6.78.25-.72.61-1.62,1-2.63,4.09,3.83,13.69,9.63,14.11,10s1.42,1.46,2.7,2.59a47.75,47.75,0,0,0-1.49,6l-.26,0C2009.09,441.35,2002.9,438.33,1999.75,436.9Z" transform="translate(482.17 -188.67)"/><path class="cls-2" d="M2045.68,364.3c-3.63-1-16.55-6.77-21.89-9.19-.07-2.52-.24-4.52-.38-5.75,7.41,3.68,11-2,18.61.1,6.76,1.88,26.69,2.52,27.62,2.68.76.13,3.94.83,6.92,1.23a76.31,76.31,0,0,1-2.5,10.61c-.22,1-1.52,3.4-3.59,6.41-3-1.07-7-2.35-8.36-2.25C2059.85,368.33,2050.42,365.58,2045.68,364.3Z" transform="translate(482.17 -188.67)"/><path class="cls-2" d="M2036.89,472.61c.13-.92-.87-3-1.76-4.63.77-1,1.85-1.76,3.22-1,2.87,1.51,3.2,5.36.48,7.95C2037.83,474.18,2036.78,473.44,2036.89,472.61Z" transform="translate(482.17 -188.67)"/><path class="cls-2" d="M2052,460.63c-.28-.49-.57-.94-.83-1.34.34-1.65.65-3.42,1.83-3.79,1.38-.43,3.74-3.28,5.35-5.36a31.14,31.14,0,0,1,4.13,5.5,27.86,27.86,0,0,1,3.29,10.48c-1.3-.33-2.62-.73-3.54-1C2060.53,464.66,2053.59,461.37,2052,460.63Z" transform="translate(482.17 -188.67)"/><path class="cls-2" d="M2025.44,471.35a20.54,20.54,0,0,1-3.34,4.14,9.57,9.57,0,0,1-5.11-6.95c1.73-.36,3.93-.59,5.29-.77a15.65,15.65,0,0,1,4,.46,4.19,4.19,0,0,0,.07.63C2026.05,469.77,2025.68,470.7,2025.44,471.35Z" transform="translate(482.17 -188.67)"/><path class="cls-3" d="M2004.46,326s-12.53,5.44-23.81-2.05-27.2-14.46-27.2-14.46-3.4-1.2-3.75,1.19,22,14.78,25,17.19c1.28,1,.79,1.93.45,2.32-.54.59-.32,1.36-7.48.13s-7.87-1.57-13.08-1.73c-6.38-.19-5.26,3.9-1.88,5.13,1.68.77,5.66,1.57,12.88,2.26,6.94.19,9.86.12,11.37.63.19.07,3.47,1.24.56,2.56s-9,2-9,2-13.89,1.62-18.46,2.49c-1.69.32-5,1.22-6.15,3-1,1.52-.44,2.74,7,2.74s26.27-1.15,28-1.27c2-.14,7.85.61,1.3,5.38a67.15,67.15,0,0,1-13.2,4.6s-3.77,1.7-4.61,3.44c-.92,1.92-2.82,4.6,2.8,5.32s13.93-5.61,14.09-5.64,6-2.46,8.14-2.4c1.77.05,3.54,1.28-3,6.13s-17.29,13-17.29,13-5.1,4.51-1.61,6.17,15.7-6.39,15.7-6.39l14.36-9.74s5.37-2.47,3.18,2.13-18.57,18.42-11.68,19.87,10.83-1.19,27.16-15.45c3.31-14.81,3.13-19.19,2.59-29.66s-6.35-17.53-8.32-17.78A12.63,12.63,0,0,0,2004.46,326Z" transform="translate(482.17 -188.67)"/><path class="cls-3" d="M2021.55,231.09s-6.31-3.44-10.47-3.44c-1.85,3.38-3.73,6.86-4.4,6.86s-6.47,1.47-7.25,5.11,12,4.62,12,4.62S2023.36,232,2021.55,231.09Z" transform="translate(482.17 -188.67)"/><path class="cls-3" d="M2009.85,246.17s-9.1-1.66-10.2-3.54-2.72,2.42-2.72,2.42-3.42,12.8-6.34,12.32c4.86,1.5,3.69,1.95,11.3,2.71C2004.44,257.27,2010.82,248.4,2009.85,246.17Z" transform="translate(482.17 -188.67)"/><path class="cls-3" d="M2003,262.91s-7,1.09-11-2.93c-2.48,3.44-3.76,3.6-3.14,8.75.58,1.28,1,4.68,0,5.66a4.14,4.14,0,0,0-1,4.47c.72,1.62.49,3.45,5.24,3.36s6-3.23,6-3.23,4-10.56,3.54-10.56S2003,262.91,2003,262.91Z" transform="translate(482.17 -188.67)"/><path class="cls-3" d="M2000.12,302s-3.23,3.39-11.28,2.62c1.54,4.35,2.17,11.14,5.78,17.39,5.87,1.63,10.05,2.61,10-5.76s-2.23-12.6-2.76-13.35Z" transform="translate(482.17 -188.67)"/><path class="cls-3" d="M2019,381s-6.44-.77-7.45.64-8.65,7.72-8.65,12.57,5.7,6,6.37,5.23C2012.78,395.37,2020.36,382.58,2019,381Z" transform="translate(482.17 -188.67)"/><path class="cls-3" d="M2007.34,402.37a11.7,11.7,0,0,0-8.52-.51c-1.08,5.17-3.12,14.39-5.5,15.89-.34,1.06-.21,3.83,5.9,4.47C2003.85,417.43,2008.68,409.71,2007.34,402.37Z" transform="translate(482.17 -188.67)"/><path class="cls-3" d="M1999.11,425.67s-4.23-2.75-6.31-1.92c-.54,2-.33,3.77-1.94,7.6s-2,.77-2.56,8c6.25,1.15,6,.76,7.12-.32S2000.05,426.5,1999.11,425.67Z" transform="translate(482.17 -188.67)"/><path class="cls-3" d="M1993.11,443s-3.62-1.92-6.64,0c-.13,4.78-.8,11.42,3.22,12.51S1995.06,443.86,1993.11,443Z" transform="translate(482.17 -188.67)"/><path class="cls-3" d="M1988.89,458.8s5.3-1.15,5.23,4.34.2,5.74.2,5.74-1.47,4.15-4.29-.83A11.41,11.41,0,0,1,1988.89,458.8Z" transform="translate(482.17 -188.67)"/><path class="cls-3" d="M1991.46,472.67l3.62.38s4.63,3.83,3.69,7.15-4.09.19-4.09.19A9.84,9.84,0,0,1,1991.46,472.67Z" transform="translate(482.17 -188.67)"/><path class="cls-3" d="M1999.69,484.22s3-2.1,5.84,1.92c.94,4.15-1.44,3.16-1.44,3.16s-3.63-.8-4.3-3.48A9.67,9.67,0,0,1,1999.69,484.22Z" transform="translate(482.17 -188.67)"/><path class="cls-3" d="M1998,283s-9.3,3.95-11.85.42c-.81,4.77-.05,6-.05,6s4.92,6.39,4.75,11.07c2.14.81,1.92,2.68,7.78-2.3C1998.37,292.65,1999.53,291.54,1998,283Z" transform="translate(482.17 -188.67)"/><rect class="cls-1" x="1673.34" y="579.83" width="579.21" height="113.37"/><path class="cls-1" d="M1278.34,685.29a1.91,1.91,0,0,1-.14,1.18,2.79,2.79,0,0,1-.89,1.12,5.29,5.29,0,0,1-3.76,1,10.29,10.29,0,0,1-4.61-1.62c-.72-.45-1.4-1-2.13-1.41a9.13,9.13,0,0,0-7.58-.85,10.74,10.74,0,0,0-2.47,1.11.29.29,0,0,1-.17,0c.06-.08.11-.16.18-.24a7.66,7.66,0,0,1,4.56-2.75,8.71,8.71,0,0,1,5,.65,14.74,14.74,0,0,1,3.26,1.89,9.73,9.73,0,0,0,3.74,1.82,6,6,0,0,0,3.11-.07,2.39,2.39,0,0,0,1.84-1.88Z" transform="translate(482.17 -188.67)"/><path class="cls-1" d="M1274.3,689.14c-.15.09-.29.21-.45.29a6.08,6.08,0,0,1-3.08.57,10.93,10.93,0,0,1-5.06-1.79,14,14,0,0,0-1.76-1,7.15,7.15,0,0,0-4.93-.2.46.46,0,0,1-.21,0l.2-.17a5.84,5.84,0,0,1,6-.81,9.91,9.91,0,0,1,2,1.13,12.33,12.33,0,0,0,3.85,1.89,5.79,5.79,0,0,0,3.35,0h0Z" transform="translate(482.17 -188.67)"/><path class="cls-1" d="M1274.84,682.34a2.37,2.37,0,0,1,1.05-.06,3.29,3.29,0,0,1,1.46.46,1.4,1.4,0,0,1,.6,1.84,2.52,2.52,0,0,1-1.21,1.32,5.32,5.32,0,0,1-2.88.57,9.17,9.17,0,0,1-4.86-2l0-.06.17,0c1,.24,2.06.51,3.1.7a7.3,7.3,0,0,0,3-.09,2.37,2.37,0,0,0,1-.55,1,1,0,0,0,0-1.62A2.89,2.89,0,0,0,1274.84,682.34Z" transform="translate(482.17 -188.67)"/><path class="cls-2" d="M1278.34,824.89a1.92,1.92,0,0,1-.14,1.18,2.76,2.76,0,0,1-.89,1.11,5.3,5.3,0,0,1-3.76,1.06,10.19,10.19,0,0,1-4.61-1.63c-.72-.44-1.4-1-2.13-1.4a9.13,9.13,0,0,0-7.58-.85,11.15,11.15,0,0,0-2.47,1.1.29.29,0,0,1-.17,0c.06-.08.11-.16.18-.24a7.61,7.61,0,0,1,4.56-2.75,8.71,8.71,0,0,1,5,.65,14.74,14.74,0,0,1,3.26,1.89,9.57,9.57,0,0,0,3.74,1.81,6,6,0,0,0,3.11-.06,2.39,2.39,0,0,0,1.84-1.89Z" transform="translate(482.17 -188.67)"/><path class="cls-2" d="M1274.3,828.73a4.4,4.4,0,0,1-.45.3,6.08,6.08,0,0,1-3.08.57,11,11,0,0,1-5.06-1.79,14.1,14.1,0,0,0-1.76-1,7.21,7.21,0,0,0-4.93-.19.47.47,0,0,1-.21,0l.2-.16a5.82,5.82,0,0,1,6-.81,9.46,9.46,0,0,1,2,1.13,12.56,12.56,0,0,0,3.85,1.89,5.71,5.71,0,0,0,3.35,0h0Z" transform="translate(482.17 -188.67)"/><path class="cls-2" d="M1274.84,821.94a2.38,2.38,0,0,1,1.05-.07,3.44,3.44,0,0,1,1.46.47,1.4,1.4,0,0,1,.6,1.84,2.5,2.5,0,0,1-1.21,1.31,5.23,5.23,0,0,1-2.88.58,9.25,9.25,0,0,1-4.86-2l0-.06.17,0c1,.23,2.06.51,3.1.7a7.13,7.13,0,0,0,3-.1,2.25,2.25,0,0,0,1-.54,1,1,0,0,0,0-1.62A2.89,2.89,0,0,0,1274.84,821.94Z" transform="translate(482.17 -188.67)"/><path class="cls-2" d="M5070.37,3129.34a180.66,180.66,0,0,1-26.29-21.09c-3.1-3-5.86-6-8.48-9.09-4,16.54-42.38,55-43.36,56.94-.42.84-1.18,3.07-2.31,5.87,20.39,17.86,41.55,37.14,71.34,50.3,3.38-9.15,6.44-18.91,8.71-25.55C5073.51,3176.41,5071.45,3143.39,5070.37,3129.34Z" transform="translate(482.17 -188.67)"/><path class="cls-2" d="M5255.33,2570.34c12.57-.93,53.61-25.26,74.58-36.89a118.68,118.68,0,0,0,13.14-9.16l-2.57-3.63c-14.13-21.22-26.84-39.24-38.27-56.73-14.33,2.09-29.15,4.15-40.17,17.19-19.61,23.21-93.09,65.41-107,74,19.82,19.66,35.25,36,47.48,49.9,0-1.81.07-2.82.07-2.82S5242.76,2571.27,5255.33,2570.34Z" transform="translate(482.17 -188.67)"/><path class="cls-2" d="M5271.75,2964c-5.19-31.76-18.41-58.22-18.41-58.22s-1.61-2.8-4.72-7.41c-8.25,6.29-16.74,13.6-22.57,18.35-6.43,5.23-17,23.31-24.63,37.19a72.75,72.75,0,0,1,3.59,10.25C5218.88,2958.64,5258.7,2962.82,5271.75,2964Z" transform="translate(482.17 -188.67)"/><path class="cls-2" d="M5157.45,2898.32a55.3,55.3,0,0,1,16.72,14.17c1.06,1.32,2,2.51,3,3.77,2.85-12.79,33.74-40.13,44.92-50.22-15.06-15.24-35.25-31.22-59.91-40.72-1.4,4-2.69,7.8-3.79,10.87C5154.14,2847.93,5156.83,2889.51,5157.45,2898.32Z" transform="translate(482.17 -188.67)"/><path class="cls-2" d="M5016.46,1559.34c49.09,28.84,142.83-21.89,147.28-25.16,4.07-3,25-15.19,26.62-25.32,40.5-86.06-15.57-151.42-64-215.24,119.66,83.46,104.94,176.74,104.94,176.74s-24.09,120.86-32.53,139.91c-6.39,14.45-34.09,42.83-57.31,65.88,5.66,1.28,50.24,11.59,58.41,19.57,8.73,8.51,54.28,24.15,76.92,32.6,22,8.22,125.49,22.25,125.49,22.25s0,.29,0,.73c10-33.74,18.28-68.78,22.36-90.09,7.44-38.75-19.62-145.69-27-175.51-1.74-7-39.58-75.48-39.58-75.48s-8.89-20.92-10.74-26.09c-2.22-6.21-15.88-67.12-13.81-76.7,1.51-7,20.87-20,57.69-40.2,16.87-45.11-29.15-35.29-29.15-35.29s-58.61,29.15-63.82,16-6.45-12,6.44-33.45c46.33-70.57,21.48-77.93,21.48-77.93s-7.67-10.44-33.45-12-50,68.73-68.11,70-24.55-50.32-20.87-81.31-28.84-38.66-38.35-40.2-20.1-5.21-18.11,41.89.92,37.89-6.13,46.17c-16.57,8-30.07-54.61-39.89-76.09,11.66-8.59-60.76-49.1-45.41,19s-3.69,60.76-18.41,73c-6.76,77.94-31.3,79.16-74.87,69.34s-49.71,9.21-59.53,46.64c-47.25,81.62-27.61,47.87-114.76,103.1,37.44,33.14,11.66,16.57,25.78,26.39-12.89,18.41-163.85,79.16-178.58,70-13.21-8.26-27.86-1.72-30.75-.28-.67,1.33-2.09,4-4.84,8.87-8.6,15.34,30.07,66.89,30.07,66.89s22.7,8,37.43-6.75c48.48-28.23,229.51-40.5,229.51-40.5S4963.07,1550.13,5016.46,1559.34Z" transform="translate(482.17 -188.67)"/><path class="cls-2" d="M4864.1,2115s72.56-10.14,87.31-5.07,82.27,1.6,116.05.57c30.57-.92,159.29-27.08,177.1-30.73,2.35-8.18,5-17.38,8.16-28,2-6.1,4.12-11.89,6.21-17.64-55.35,20.39-74-24.76-128-17.15-47.84,6.75-183.75-8.36-190.23-8.18-6.81.19-41.39,3.24-64.74,1.29a379.84,379.84,0,0,0-16.2,109.28C4862.47,2116.55,4864.1,2115,4864.1,2115Z" transform="translate(482.17 -188.67)"/><path class="cls-2" d="M5380,2653c4.44-2.79,11.49-8.7,19.74-16.15-12.52-28.13-26.44-57.86-35.1-76.19-30,26-96.46,63.41-99.46,66s-15.16,14.83-27.31,23.81c15.12,23.09,19.26,37,34.5,57.13,1.26,1.66,2.42,3.49,3.63,5.24,11.47-8.79,25-18.15,31.5-19C5320,2692.18,5359.66,2665.69,5380,2653Z" transform="translate(482.17 -188.67)"/><path class="cls-2" d="M4987.2,3101.88c7.23-7.11,18.92-34,24.8-48.19-4.57-19.31-3.31-38.52.83-56.07a11.16,11.16,0,0,0-6.22,4.12c-9,12.85-64.46,29.25-66.32,30.56-.73.52-2.36,2-4.55,3.84,1.65,32.75,9.3,65.19,24.19,91.8C4969.38,3120.1,4980.28,3108.69,4987.2,3101.88Z" transform="translate(482.17 -188.67)"/><path class="cls-2" d="M5296.68,3069.92a180.92,180.92,0,0,1-27.63,42.1,11.08,11.08,0,0,1,1,.77c9.06,8.76,54.54,23.17,77.19,31.07,5.29,1.85,15.22,3.79,27.21,5.68,40.48-32.78,56.88-66.19,64.15-90.28-40.87,4.62-101.08,3.36-104.53,4C5330.06,3063.91,5312.14,3068.57,5296.68,3069.92Z" transform="translate(482.17 -188.67)"/><path class="cls-2" d="M5143.26,3156.48a177.82,177.82,0,0,1-29.72-6.61c-2.14,3.94-3.11,7.74-1.84,11.24,4.15,11.46-5.94,47-10.66,63.4,23.9,4.5,52.57,5.27,87.85.53-2.59-5.63-5.16-11-7-15.12C5177.34,3200.06,5152.22,3167.84,5143.26,3156.48Z" transform="translate(482.17 -188.67)"/><path class="cls-2" d="M5168.7,3026.92c-4.48,11.14-8.22,39.27-8.71,43.08a113.26,113.26,0,0,0,24.62.82,165.51,165.51,0,0,0,21.26-2.91c-.61-3-1.77-5.45-4-6.81-6-3.7-13.75-20-19.14-32.49A42.73,42.73,0,0,1,5168.7,3026.92Z" transform="translate(482.17 -188.67)"/><path class="cls-2" d="M4988.83,1957.79c13.87,7.14,81.18,13.45,114.76,17.31,32.66,3.76,181.83-5,181.83-5s.05.59.11,1.46c8.18-16.56,16.46-31.4,24.64-45-41.31,2.43-55.29-33-100.53-32.27-44.24.7-166.05-28.56-172-29.13-7.88-.76-56.93-2.42-72.87-10.56-16.63,20.7-33.92,44.06-51.45,70.46-5.39,9.16-10.23,18.28-14.66,27.34,1.9-1.45,3-2.22,3-2.22S4975,1950.65,4988.83,1957.79Z" transform="translate(482.17 -188.67)"/><path class="cls-2" d="M5318.53,2977.78c-.05,1-.08,1.87-.14,2.83-.16,2.57-.4,5-.62,7.55a192.85,192.85,0,0,1,3.94,19.71c13.29-.71,27.26-.7,32.58,1.94,11.28,5.61,59,5.6,83,6.29a88,88,0,0,0,10.13-.54c6.39-37.91,9.39-68.48,10.13-85.6-37.09,16.19-107.13,32.72-110.62,34.3C5343.7,2965.7,5331.26,2972.58,5318.53,2977.78Z" transform="translate(482.17 -188.67)"/><path class="cls-2" d="M5205.61,3154.33a167.91,167.91,0,0,1-20.21,3c1,9.56.13,20.06,8.37,28.17,6.39,6.3,15,21.07,22.51,35,13.7-2.7,28.22-6.08,43.81-10.37a468.27,468.27,0,0,0,63.22-27.33c-38.76-8.93-85.52-24.78-88.65-25.2C5231.37,3157.14,5218.46,3156.42,5205.61,3154.33Z" transform="translate(482.17 -188.67)"/><path class="cls-2" d="M5087.21,1824.13c11.79,8.09,72.25,21.51,102.33,28.85,25.17,6.15,129.63,13.67,158.4,15.66,9.87-14.72,18.92-28.63,26.6-43a228.78,228.78,0,0,0,10.59-23.6c-47.69,18.9-53.86-30.59-94.28-31.7-33.62-.93-125.32-34.66-129.79-35.44-6.89-1.22-55.53-5.65-58.55-17.7-13.61,12.85-52,41.09-100.72,94.26,4.44-2.81,7.1-4.19,7.1-4.19S5075.42,1816,5087.21,1824.13Z" transform="translate(482.17 -188.67)"/><path class="cls-2" d="M5320.22,2867.63c-.35.25-.85.66-1.41,1.12q1.43,21.57,1.54,45.25c12.89-4.11,26.8-7.75,32.72-6.5,12.33,2.6,58.51-9.38,81.89-14.73,4.67-1.07,12.25-3.88,21.32-7.65-.86-25.6-1.9-56-4.11-73.27-.82-6.43-2.18-14.25-3.86-22.78a40.75,40.75,0,0,0-14.55,9.82C5411,2822.69,5323.78,2864.94,5320.22,2867.63Z" transform="translate(482.17 -188.67)"/><path class="cls-2" d="M5231.33,2283.89c-1.2-7.89-2.16-15.65-2.95-23.25-37.45,23.28-69.49-2-111.65,22.78-38.92,22.86-156.13,57.39-176.22,64,19.31,24.33,42.14,49.84,66.79,72.33,22.44-7.74,70.69-33.61,96.8-46.95C5125.6,2361.8,5195.62,2310.43,5231.33,2283.89Z" transform="translate(482.17 -188.67)"/><path class="cls-2" d="M5080.16,2903a139.61,139.61,0,0,1,14.45-5.84c7.86-11.59,25.42-25.08,21.66-35.94-2.77-8,1.52-27.58,6.06-44.26-40.07-2.48-74.77,9.17-103.25,29.47,4.22,6.62,8.54,13,11.6,17.72C5037.68,2875,5074.47,2899.26,5080.16,2903Z" transform="translate(482.17 -188.67)"/><path class="cls-2" d="M5217.61,2463.49c10.53-5.84,35.58-27.26,57.36-46.63-3.5-7.16-6.88-14.49-10-22.31a315.48,315.48,0,0,1-16.8-40.35c-30.43,22-64.19,8.16-98.11,38.34-19.36,17.23-63.31,43.26-100.71,64.27,24.47,21.77,45.81,41.23,64.41,58.65,11.14-7.44,23.28-14.64,29.24-15.08C5155.6,2499.45,5196.64,2475.12,5217.61,2463.49Z" transform="translate(482.17 -188.67)"/><path class="cls-2" d="M5390.48,2778.59c9-4.28,28.41-18.53,47.8-33.49-4.76-18.76-9.87-36.67-14-48.93-1.76-5.18-4.23-11.64-7.17-18.91-28.08,27.58-93.86,69.4-96.75,72.15-2.23,2.12-9.79,10.5-18.54,18.65a355.35,355.35,0,0,1,10.23,43.06,14,14,0,0,1,1.78-.23C5326.4,2810.73,5368.84,2788.93,5390.48,2778.59Z" transform="translate(482.17 -188.67)"/><path class="cls-2" d="M5075.46,2255.09c24.9-7.07,113.54-48.81,150.16-66.26.45-18.13,1.65-32.54,2.58-41.44-50.82,26.57-75.79-14.49-127.64.69-46.36,13.58-183,18.23-189.42,19.35-5.24.91-27,6-47.46,8.88,5.62,40.41,15.47,68.27,17.16,76.48,1.53,7.44,10.43,24.52,24.61,46.21,20.91-7.72,48.17-16.94,57.33-16.16C4978.31,2284.15,5043,2264.32,5075.46,2255.09Z" transform="translate(482.17 -188.67)"/><path class="cls-2" d="M5135.74,3036.11c-.87-6.62,6-21.54,12.07-33.36-5.28-7.17-12.68-12.7-22-7.49-19.68,10.94-21.94,38.65-3.35,57.38C5129.33,3047.45,5136.53,3042.1,5135.74,3036.11Z" transform="translate(482.17 -188.67)"/><path class="cls-2" d="M5031.84,2949.72c2-3.52,3.89-6.77,5.72-9.69-2.35-11.85-4.49-24.62-12.54-27.28-9.46-3.12-25.68-23.67-36.74-38.66a223.65,223.65,0,0,0-28.28,39.63c-11.36,20.19-19.14,46.85-22.62,75.58,8.93-2.39,18-5.23,24.33-7.06C4973.62,2978.81,5021.23,2955,5031.84,2949.72Z" transform="translate(482.17 -188.67)"/><path class="cls-2" d="M5214.3,3027c2.33,6.58,14.91,21.08,22.87,29.84,21.39-12.05,31.48-30.36,35.06-50.15-11.83-2.6-26.94-4.24-36.27-5.56-5.46-.77-16.36,1-27.57,3.35a32,32,0,0,1-.51,4.54C5210.07,3015.65,5212.63,3022.35,5214.3,3027Z" transform="translate(482.17 -188.67)"/><path class="cls-3" d="M5358.2,1978.71s85.91,39.27,163.24-14.73S5708,1859.65,5708,1859.65s23.32-8.59,25.78,8.6-150.94,106.59-171.83,124c-8.77,7.28-5.44,14-3.07,16.72,3.68,4.3,2.15,9.82,51.24.92s54-11.3,89.75-12.43c43.73-1.38,36.06,28.08,12.89,37-11.51,5.52-38.82,11.35-88.37,16.26-47.56,1.38-67.58.88-77.94,4.6-1.29.47-23.78,8.9-3.83,18.41S5604,2088.4,5604,2088.4s95.22,11.71,126.57,17.95c11.64,2.32,34.26,8.84,42.19,21.79,6.71,11,3.06,19.79-48,19.79s-180.13-8.34-191.93-9.21c-13.5-1-53.85,4.45-8.9,38.82,53.39,25.47,90.52,33.14,90.52,33.14s25.88,12.28,31.6,24.85c6.29,13.81,19.33,33.14-19.17,38.35s-95.58-40.5-96.66-40.65-41.23-17.77-55.84-17.34c-12.15.36-24.24,9.21,20.25,44.19s118.59,93.58,118.59,93.58,35,32.53,11,44.49-107.7-46-107.7-46l-98.5-70.27s-36.82-17.79-21.78,15.34,127.33,132.86,80.08,143.3-74.25-8.59-186.25-111.38c-22.7-106.78-21.48-138.39-17.79-213.87s43.57-126.42,57.07-128.26C5342.55,1979.93,5358.2,1978.71,5358.2,1978.71Z" transform="translate(482.17 -188.67)"/><path class="cls-3" d="M5241,1294.61s43.26-24.85,71.8-24.85c12.66,24.39,25.54,49.48,30.14,49.48s44.42,10.58,49.71,36.82-81.92,33.37-81.92,33.37S5228.56,1300.83,5241,1294.61Z" transform="translate(482.17 -188.67)"/><path class="cls-3" d="M5321.23,1403.31s62.36-12,70-25.54,18.65,17.49,18.65,17.49,23.47,92.28,43.49,88.83c-33.37,10.81-25.31,14-77.55,19.56C5358.28,1483.4,5314.55,1419.42,5321.23,1403.31Z" transform="translate(482.17 -188.67)"/><path class="cls-3" d="M5368.48,1524.05s48.33,7.83,75.25-21.17c17,24.85,25.85,26,21.56,63.13-4,9.21-6.75,33.75.3,40.81s11.66,20.56,6.75,32.22-3.37,24.85-35.9,24.24-41.11-23.32-41.11-23.32-27.31-76.1-24.24-76.1S5368.48,1524.05,5368.48,1524.05Z" transform="translate(482.17 -188.67)"/><path class="cls-3" d="M5387.91,1805.53s22.2,24.48,77.37,18.88c-10.53,31.39-14.88,80.34-39.66,125.41-40.22,11.79-68.86,18.85-68.58-41.51s15.33-90.87,19-96.26Z" transform="translate(482.17 -188.67)"/><path class="cls-3" d="M5258.78,2375.45s44.19-5.53,51.09,4.6,59.38,55.69,59.38,90.67-39.13,43.26-43.73,37.74C5301.09,2479.14,5249.12,2387,5258.78,2375.45Z" transform="translate(482.17 -188.67)"/><path class="cls-3" d="M5338.41,2529.63s26.23-14.73,58.45-3.68c7.37,37.28,21.4,103.79,37.74,114.6,2.3,7.6,1.38,27.62-40.5,32.22C5362.34,2638.25,5329.2,2582.56,5338.41,2529.63Z" transform="translate(482.17 -188.67)"/><path class="cls-3" d="M5394.87,2697.63s29-19.79,43.26-13.81c3.68,14.27,2.3,27.15,13.35,54.77s13.81,5.52,17.49,57.53c-42.81,8.29-41,5.52-48.79-2.3S5388.42,2703.61,5394.87,2697.63Z" transform="translate(482.17 -188.67)"/><path class="cls-3" d="M5436,2822.36s24.86-13.81,45.57,0c.92,34.51,5.52,82.38-22.09,90.21S5422.64,2828.8,5436,2822.36Z" transform="translate(482.17 -188.67)"/><path class="cls-3" d="M5465,2936.5s-36.36-8.29-35.9,31.3-1.38,41.42-1.38,41.42,10.12,29.92,29.45-6S5465,2936.5,5465,2936.5Z" transform="translate(482.17 -188.67)"/><path class="cls-3" d="M5447.34,3036.53l-24.86,2.76s-31.76,27.61-25.31,51.55,28.07,1.38,28.07,1.38S5447.8,3073.81,5447.34,3036.53Z" transform="translate(482.17 -188.67)"/><path class="cls-3" d="M5390.88,3119.83s-20.71-15.18-40,13.81c-6.45,29.92,9.89,22.78,9.89,22.78s24.86-5.75,29.46-25.08A69.23,69.23,0,0,0,5390.88,3119.83Z" transform="translate(482.17 -188.67)"/><path class="cls-3" d="M5402.38,1668.5s63.83,28.53,81.32,3.06c5.52,34.37.3,43.57.3,43.57s-33.75,46-32.52,79.78c-14.73,5.83-13.2,19.33-53.39-16.57C5399.93,1738.45,5392,1730.48,5402.38,1668.5Z" transform="translate(482.17 -188.67)"/></g><g id="Calque_2" data-name="Calque 2"><path class="cls-1" d="M3416.79,1610.25c48.89,28.72,142.24-21.8,146.67-25.06,4.05-3,24.9-15.12,26.5-25.2,40.34-85.71-15.5-150.79-63.78-214.35,119.17,83.11,104.5,176,104.5,176s-24,120.36-32.39,139.33c-6.37,14.39-33.94,42.65-57.07,65.6,5.63,1.28,50,11.55,58.17,19.49,8.69,8.48,54.05,24,76.59,32.46,21.93,8.19,125,22.16,125,22.16l0,.72c9.92-33.59,18.21-68.49,22.28-89.71,7.4-38.58-19.55-145.07-26.89-174.77-1.73-7-39.42-75.17-39.42-75.17s-8.85-20.82-10.69-26c-2.22-6.19-15.82-66.84-13.75-76.39,1.5-6.94,20.77-19.86,57.44-40,16.81-44.91-29-35.13-29-35.13s-58.36,29-63.55,15.88-6.42-11.91,6.42-33.3c46.13-70.28,21.38-77.61,21.38-77.61s-7.63-10.39-33.3-11.92S3642,1245.73,3624,1247s-24.45-50.11-20.78-81-28.72-38.5-38.19-40-20-5.19-18,41.71.92,37.73-6.11,46c-16.5,7.95-29.95-54.38-39.72-75.77,11.61-8.56-60.5-48.89-45.23,18.94s-3.66,60.5-18.33,72.72c-6.72,77.61-31.16,78.83-74.55,69.06s-49.5,9.16-59.28,46.44c-47,81.28-27.5,47.67-114.28,102.67,37.28,33,11.61,16.5,25.67,26.27-12.83,18.34-163.16,78.84-177.83,69.67-13.15-8.22-27.74-1.71-30.62-.28-.67,1.32-2.09,3.94-4.82,8.83-8.56,15.28,29.94,66.61,29.94,66.61s22.61,8,37.28-6.72c48.27-28.11,228.55-40.33,228.55-40.33S3363.63,1601.08,3416.79,1610.25Z" transform="translate(482.17 -188.67)"/><path class="cls-1" d="M3006.13,1543.64l.55-.28C3008.1,1540.55,3006.13,1543.64,3006.13,1543.64Z" transform="translate(482.17 -188.67)"/><path class="cls-1" d="M3265.07,2163.62s72.26-10.09,86.94-5,81.93,1.59,115.57.58c30.44-.92,158.62-27,176.36-30.61,2.34-8.15,5-17.31,8.13-27.88,2-6.07,4.09-11.85,6.17-17.57-55.11,20.3-73.67-24.66-127.45-17.07-47.64,6.71-183-8.34-189.43-8.16-6.78.19-41.21,3.23-64.47,1.29A378.29,378.29,0,0,0,3260.76,2168C3263.45,2165.12,3265.07,2163.62,3265.07,2163.62Z" transform="translate(482.17 -188.67)"/><path class="cls-1" d="M3778.8,2699.27c4.42-2.77,11.45-8.65,19.66-16.08-12.47-28-26.33-57.61-35-75.87-29.9,25.9-96.05,63.15-99,65.7s-15.1,14.76-27.19,23.7c15.05,23,19.18,36.83,34.35,56.9,1.25,1.65,2.41,3.47,3.61,5.21,11.43-8.75,24.89-18.07,31.37-18.9C3719.05,2738.34,3758.56,2712,3778.8,2699.27Z" transform="translate(482.17 -188.67)"/><path class="cls-1" d="M3387.65,3146.33c7.21-7.08,18.84-33.82,24.7-48-4.55-19.23-3.3-38.37.83-55.84a11.17,11.17,0,0,0-6.2,4.1c-9,12.8-64.18,29.13-66,30.44-.73.51-2.36,2-4.53,3.82,1.64,32.61,9.26,64.91,24.08,91.42C3369.91,3164.46,3380.76,3153.11,3387.65,3146.33Z" transform="translate(482.17 -188.67)"/><path class="cls-1" d="M3695.84,3114.5a180.43,180.43,0,0,1-27.51,41.92,12.43,12.43,0,0,1,1,.77c9,8.72,54.32,23.07,76.87,30.94,5.27,1.84,15.15,3.77,27.09,5.65,40.32-32.63,56.64-65.91,63.89-89.9-40.71,4.6-100.67,3.35-104.09,3.94C3729.08,3108.52,3711.23,3113.15,3695.84,3114.5Z" transform="translate(482.17 -188.67)"/><path class="cls-1" d="M3470.48,3173.67a181.08,181.08,0,0,1-26.19-21c-3.07-3-5.83-6-8.44-9.05-3.94,16.47-42.2,54.73-43.18,56.7-.41.83-1.17,3-2.29,5.84,20.29,17.79,41.37,37,71,50.09,3.37-9.11,6.41-18.83,8.67-25.44C3473.61,3220.54,3471.55,3187.66,3470.48,3173.67Z" transform="translate(482.17 -188.67)"/><path class="cls-1" d="M3543.06,3200.7a178.36,178.36,0,0,1-29.6-6.58c-2.13,3.92-3.09,7.7-1.83,11.18,4.14,11.42-5.91,46.81-10.62,63.15,23.81,4.47,52.36,5.24,87.49.52-2.58-5.61-5.13-11-7-15.06C3577,3244.09,3552,3212,3543.06,3200.7Z" transform="translate(482.17 -188.67)"/><path class="cls-1" d="M3568.4,3071.68c-4.47,11.09-8.19,39.1-8.68,42.9a112.37,112.37,0,0,0,24.52.81,165.93,165.93,0,0,0,21.17-2.89c-.6-3-1.76-5.43-4-6.78-6-3.69-13.68-19.89-19.06-32.35A42.57,42.57,0,0,1,3568.4,3071.68Z" transform="translate(482.17 -188.67)"/><path class="cls-1" d="M3389.28,2007c13.81,7.11,80.84,13.39,114.28,17.24,32.52,3.74,181.07-5,181.07-5s0,.59.11,1.45c8.14-16.49,16.38-31.27,24.53-44.78-41.14,2.41-55.05-32.86-100.1-32.15-44.06.7-165.36-28.43-171.24-29-7.85-.76-56.7-2.41-72.57-10.52-16.56,20.62-33.78,43.88-51.23,70.17-5.37,9.12-10.19,18.2-14.61,27.22,1.9-1.44,3-2.21,3-2.21S3375.48,1999.92,3389.28,2007Z" transform="translate(482.17 -188.67)"/><path class="cls-1" d="M3717.6,3022.75c-.06.95-.09,1.86-.14,2.81-.16,2.56-.4,5-.62,7.52a189.94,189.94,0,0,1,3.92,19.63c13.24-.71,27.15-.7,32.44,1.94,11.24,5.58,58.75,5.57,82.63,6.25a86.88,86.88,0,0,0,10.09-.53c6.36-37.75,9.35-68.2,10.08-85.25-36.93,16.13-106.68,32.59-110.15,34.16C3742.66,3010.72,3730.28,3017.57,3717.6,3022.75Z" transform="translate(482.17 -188.67)"/><path class="cls-1" d="M3605.15,3198.56a169.21,169.21,0,0,1-20.12,3c1,9.53.13,20,8.33,28,6.36,6.27,15,21,22.41,34.81,13.65-2.68,28.11-6,43.63-10.32a464.8,464.8,0,0,0,63-27.22c-38.6-8.89-85.17-24.67-88.28-25.09C3630.8,3201.35,3618,3200.63,3605.15,3198.56Z" transform="translate(482.17 -188.67)"/><path class="cls-1" d="M3487.25,1873.93c11.74,8,71.95,21.42,101.9,28.73,25.06,6.12,129.09,13.62,157.73,15.59,9.83-14.65,18.85-28.51,26.49-42.78a226.83,226.83,0,0,0,10.55-23.51c-47.49,18.82-53.64-30.46-93.89-31.57-33.48-.92-124.79-34.5-129.25-35.29-6.86-1.21-55.29-5.63-58.3-17.62-13.55,12.79-51.79,40.92-100.29,93.86,4.41-2.8,7.06-4.17,7.06-4.17S3475.51,1865.88,3487.25,1873.93Z" transform="translate(482.17 -188.67)"/><path class="cls-1" d="M3654.66,2617c12.52-.92,53.39-25.15,74.27-36.73a119,119,0,0,0,13.09-9.12l-2.56-3.62c-14.08-21.13-26.73-39.08-38.12-56.49-14.26,2.08-29,4.13-40,17.12-19.52,23.11-92.69,65.13-106.51,73.73,19.74,19.57,35.11,35.86,47.28,49.69,0-1.81.08-2.81.08-2.81S3642.15,2617.94,3654.66,2617Z" transform="translate(482.17 -188.67)"/><path class="cls-1" d="M3719.28,2913.05c-.35.26-.85.66-1.4,1.12q1.41,21.48,1.53,45.06c12.84-4.09,26.69-7.72,32.58-6.47,12.28,2.58,58.27-9.34,81.55-14.67,4.65-1.06,12.2-3.87,21.23-7.62-.85-25.49-1.89-55.74-4.09-73-.82-6.4-2.17-14.19-3.85-22.68a40.49,40.49,0,0,0-14.48,9.77C3809.71,2868.31,3722.82,2910.38,3719.28,2913.05Z" transform="translate(482.17 -188.67)"/><path class="cls-1" d="M3630.77,2331.76c-1.2-7.85-2.16-15.58-2.95-23.15-37.29,23.18-69.2-2-111.18,22.68-38.75,22.77-155.48,57.16-175.48,63.73,19.23,24.23,42,49.63,66.51,72,22.35-7.72,70.39-33.47,96.4-46.76C3525.47,2409.34,3595.2,2358.19,3630.77,2331.76Z" transform="translate(482.17 -188.67)"/><path class="cls-1" d="M3480.23,2948.26a140.53,140.53,0,0,1,14.38-5.82c7.83-11.54,25.32-25,21.58-35.78-2.77-8,1.51-27.47,6-44.08a157.1,157.1,0,0,0-102.82,29.34c4.21,6.6,8.51,12.94,11.56,17.65C3437.93,2920.34,3474.56,2944.56,3480.23,2948.26Z" transform="translate(482.17 -188.67)"/><path class="cls-1" d="M3617.1,2510.61c10.49-5.82,35.43-27.15,57.12-46.43-3.49-7.13-6.85-14.43-9.93-22.22a315.72,315.72,0,0,1-16.73-40.18c-30.3,21.89-63.92,8.12-97.7,38.18-19.28,17.16-63,43.07-100.28,64,24.36,21.67,45.61,41.05,64.14,58.41,11.09-7.42,23.18-14.58,29.11-15C3555.35,2546.42,3596.22,2522.2,3617.1,2510.61Z" transform="translate(482.17 -188.67)"/><path class="cls-1" d="M3671,3009c-5.18-31.62-18.34-58-18.34-58s-1.6-2.79-4.7-7.37c-8.21,6.26-16.67,13.54-22.48,18.27-6.39,5.21-17,23.21-24.52,37a72.85,72.85,0,0,1,3.57,10.2C3618.36,3003.68,3658,3007.85,3671,3009Z" transform="translate(482.17 -188.67)"/><path class="cls-1" d="M3789.25,2824.39c8.92-4.26,28.29-18.45,47.6-33.35-4.74-18.68-9.83-36.52-14-48.73-1.75-5.15-4.21-11.58-7.14-18.83-27.95,27.47-93.46,69.12-96.34,71.85-2.22,2.11-9.75,10.45-18.47,18.58a352.37,352.37,0,0,1,10.19,42.88,12.42,12.42,0,0,1,1.78-.23C3725.44,2856.39,3767.7,2834.69,3789.25,2824.39Z" transform="translate(482.17 -188.67)"/><path class="cls-1" d="M3475.55,2303.08c24.79-7,113.06-48.6,149.53-66,.44-18.06,1.64-32.41,2.57-41.27-50.61,26.46-75.47-14.42-127.1.7-46.18,13.51-182.27,18.15-188.63,19.26-5.22.91-26.92,6-47.27,8.84,5.6,40.25,15.41,68,17.09,76.16,1.53,7.41,10.39,24.42,24.51,46,20.82-7.68,48-16.86,57.08-16.09C3378.81,2332,3443.17,2312.27,3475.55,2303.08Z" transform="translate(482.17 -188.67)"/><path class="cls-1" d="M3535.57,3080.83c-.87-6.59,6-21.45,12-33.22-5.25-7.14-12.63-12.64-21.94-7.46-19.6,10.9-21.86,38.49-3.34,57.14C3529.19,3092.12,3536.36,3086.79,3535.57,3080.83Z" transform="translate(482.17 -188.67)"/><path class="cls-1" d="M3432.11,2994.8c1.95-3.51,3.87-6.74,5.7-9.65-2.35-11.8-4.48-24.51-12.5-27.16-9.42-3.11-25.56-23.57-36.58-38.5a222.62,222.62,0,0,0-28.16,39.46c-11.31,20.11-19.06,46.66-22.52,75.26,8.89-2.38,17.89-5.2,24.22-7C3374.13,3023.77,3421.55,3000.1,3432.11,2994.8Z" transform="translate(482.17 -188.67)"/><path class="cls-1" d="M3557.19,2943.62a55.25,55.25,0,0,1,16.66,14.11c1.05,1.31,2,2.5,2.94,3.75,2.84-12.73,33.6-40,44.73-50-15-15.18-35.1-31.08-59.65-40.54-1.4,4-2.68,7.76-3.78,10.82C3553.9,2893.44,3556.57,2934.85,3557.19,2943.62Z" transform="translate(482.17 -188.67)"/><path class="cls-1" d="M3613.8,3071.8c2.33,6.55,14.86,21,22.78,29.72,21.3-12,31.35-30.24,34.91-49.95-11.78-2.58-26.83-4.22-36.12-5.53-5.43-.77-16.29,1-27.45,3.33a31.52,31.52,0,0,1-.51,4.52C3609.6,3060.46,3612.15,3067.13,3613.8,3071.8Z" transform="translate(482.17 -188.67)"/><rect class="cls-1" y="935.63" width="1357.28" height="2215.15"/><path class="cls-3" d="M3757.1,2027.86s85.55,39.11,162.55-14.67,185.78-103.88,185.78-103.88,23.22-8.56,25.66,8.55S3980.79,2024,3960,2041.3c-8.73,7.26-5.42,13.9-3.06,16.66,3.67,4.27,2.14,9.77,51,.91s53.8-11.25,89.37-12.37c43.54-1.38,35.9,28,12.83,36.82-11.45,5.5-38.65,11.3-88,16.19-47.36,1.38-67.3.88-77.61,4.59-1.29.46-23.68,8.86-3.82,18.33s61.11,14.66,61.11,14.66,94.82,11.66,126,17.88c11.59,2.31,34.12,8.8,42,21.69,6.68,10.93,3.06,19.71-47.82,19.71s-179.37-8.3-191.12-9.17c-13.45-1-53.63,4.44-8.86,38.66,53.16,25.36,90.14,33,90.14,33s25.76,12.23,31.47,24.75c6.26,13.75,19.25,33-19.1,38.19s-95.18-40.33-96.25-40.49-41.06-17.69-55.61-17.26c-12.09.36-24.14,9.17,20.17,44S4011,2401.24,4011,2401.24s34.84,32.39,11,44.31-107.25-45.83-107.25-45.83l-98.08-70S3780,2312,3795,2345s126.8,132.31,79.75,142.69-73.95-8.55-185.47-110.91c-22.61-106.33-21.39-137.8-17.72-213s43.38-125.89,56.83-127.72C3741.52,2029.08,3757.1,2027.86,3757.1,2027.86Z" transform="translate(482.17 -188.67)"/><path class="cls-3" d="M3640.38,1346.64s43.08-24.75,71.5-24.75c12.6,24.29,25.44,49.27,30,49.27s44.23,10.54,49.5,36.66-81.58,33.23-81.58,33.23S3628,1352.82,3640.38,1346.64Z" transform="translate(482.17 -188.67)"/><path class="cls-3" d="M3720.28,1454.88s62.11-11.92,69.67-25.44,18.56,17.42,18.56,17.42,23.37,91.89,43.31,88.45c-33.23,10.77-25.21,14-77.23,19.48C3757.18,1534.63,3713.64,1470.92,3720.28,1454.88Z" transform="translate(482.17 -188.67)"/><path class="cls-3" d="M3767.34,1575.11s48.12,7.79,74.93-21.08c17,24.75,25.75,25.89,21.47,62.86-4,9.17-6.72,33.62.3,40.64s11.61,20.47,6.73,32.09-3.37,24.75-35.75,24.13-40.95-23.22-40.95-23.22-27.19-75.77-24.14-75.77S3767.34,1575.11,3767.34,1575.11Z" transform="translate(482.17 -188.67)"/><path class="cls-3" d="M3786.69,1855.4s22.11,24.38,77,18.81c-10.49,31.26-14.81,80-39.49,124.88-40.06,11.74-68.58,18.77-68.29-41.33s15.26-90.49,18.9-95.86Z" transform="translate(482.17 -188.67)"/><path class="cls-3" d="M3658.1,2422.94s44-5.5,50.88,4.58,59.12,55.46,59.12,90.29-39,43.08-43.54,37.58C3700.23,2526.19,3648.48,2434.4,3658.1,2422.94Z" transform="translate(482.17 -188.67)"/><path class="cls-3" d="M3737.39,2576.48s26.13-14.67,58.21-3.67c7.33,37.12,21.31,103.35,37.58,114.12,2.29,7.57,1.38,27.5-40.33,32.09C3761.23,2684.64,3728.23,2629.18,3737.39,2576.48Z" transform="translate(482.17 -188.67)"/><path class="cls-3" d="M3793.61,2743.77s28.88-19.71,43.09-13.75c3.66,14.2,2.29,27,13.29,54.54s13.75,5.5,17.41,57.29c-42.62,8.25-40.79,5.5-48.58-2.29S3787.2,2749.72,3793.61,2743.77Z" transform="translate(482.17 -188.67)"/><path class="cls-3" d="M3834.56,2868s24.75-13.75,45.37,0c.92,34.38,5.5,82-22,89.83S3821.27,2874.39,3834.56,2868Z" transform="translate(482.17 -188.67)"/><path class="cls-3" d="M3863.43,2981.64s-36.21-8.25-35.75,31.16-1.37,41.25-1.37,41.25,10.08,29.79,29.33-6S3863.43,2981.64,3863.43,2981.64Z" transform="translate(482.17 -188.67)"/><path class="cls-3" d="M3845.86,3081.25l-24.75,2.75s-31.62,27.5-25.2,51.33,28,1.37,28,1.37S3846.32,3118.37,3845.86,3081.25Z" transform="translate(482.17 -188.67)"/><path class="cls-3" d="M3789.64,3164.2s-20.62-15.12-39.87,13.75c-6.42,29.79,9.85,22.69,9.85,22.69s24.75-5.73,29.33-25A68.63,68.63,0,0,0,3789.64,3164.2Z" transform="translate(482.17 -188.67)"/><path class="cls-3" d="M3801.1,1719s63.55,28.41,81,3c5.5,34.23.31,43.39.31,43.39s-33.61,45.83-32.39,79.45c-14.67,5.8-13.14,19.25-53.17-16.5C3798.66,1788.61,3790.71,1780.67,3801.1,1719Z" transform="translate(482.17 -188.67)"/><path class="cls-1" d="M1810,267.07c-6.81,4-19.82-3-20.44-3.5s-3.47-2.11-3.69-3.51c-5.62-12,2.16-21,8.89-29.91-16.61,11.6-14.57,24.56-14.57,24.56s3.35,16.79,4.52,19.44c.88,2,4.73,6,8,9.15-.78.18-7,1.61-8.11,2.72s-7.53,3.35-10.67,4.53-17.42,3.09-17.42,3.09v.1c-1.38-4.69-2.54-9.56-3.1-12.52-1-5.38,2.72-20.24,3.74-24.38.25-1,5.5-10.49,5.5-10.49s1.23-2.9,1.49-3.62,2.2-9.33,1.91-10.66c-.21-1-2.89-2.77-8-5.58-2.34-6.27,4-4.9,4-4.9s8.14,4,8.86,2.21.89-1.66-.89-4.64c-6.43-9.81-3-10.83-3-10.83s1.06-1.45,4.64-1.66,6.94,9.54,9.45,9.71,3.41-7,2.9-11.29,4-5.37,5.32-5.59,2.79-.72,2.51,5.82-.13,5.27.85,6.42c2.3,1.11,4.18-7.59,5.54-10.57-1.62-1.2,8.43-6.82,6.3,2.64s.51,8.44,2.56,10.14c.93,10.83,4.34,11,10.39,9.64s6.89,1.28,8.26,6.48c6.55,11.34,3.83,6.65,15.92,14.32-5.19,4.6-1.62,2.3-3.57,3.67,1.78,2.55,22.73,11,24.78,9.72a4.54,4.54,0,0,1,4.27,0c.09.18.29.55.67,1.23,1.19,2.13-4.17,9.29-4.17,9.29s-3.16,1.11-5.2-.93c-6.73-3.93-31.85-5.63-31.85-5.63S1817.39,265.79,1810,267.07Z" transform="translate(482.17 -188.67)"/><path class="cls-1" d="M1867.21,257.78l-.07,0C1866.94,257.35,1867.21,257.78,1867.21,257.78Z" transform="translate(482.17 -188.67)"/><path class="cls-1" d="M1831.13,344.27s-10.07-1.41-12.12-.7-11.42.22-16.11.08c-4.24-.13-22.1-3.77-24.57-4.27-.33-1.14-.7-2.42-1.14-3.89-.28-.85-.57-1.65-.86-2.45,7.68,2.83,10.27-3.44,17.76-2.39,6.64.94,25.51-1.16,26.4-1.13a77.42,77.42,0,0,0,9,.18,52.74,52.74,0,0,1,2.25,15.18C1831.35,344.48,1831.13,344.27,1831.13,344.27Z" transform="translate(482.17 -188.67)"/><path class="cls-1" d="M1759.53,419a25.34,25.34,0,0,1-2.74-2.24c1.74-3.91,3.67-8,4.87-10.59,4.17,3.62,13.39,8.81,13.81,9.17a48.7,48.7,0,0,0,3.79,3.31c-2.1,3.21-2.68,5.13-4.79,7.93-.18.23-.34.49-.51.73-1.59-1.22-3.46-2.52-4.37-2.64C1767.86,424.45,1762.35,420.77,1759.53,419Z" transform="translate(482.17 -188.67)"/><path class="cls-1" d="M1814,481.37c-1-1-2.62-4.72-3.44-6.69a17,17,0,0,0-.11-7.79,1.53,1.53,0,0,1,.86.57c1.25,1.78,8.94,4.06,9.2,4.25.1.07.33.28.63.53a29.53,29.53,0,0,1-3.35,12.75C1816.51,483.9,1815,482.32,1814,481.37Z" transform="translate(482.17 -188.67)"/><path class="cls-1" d="M1771.09,476.93a25,25,0,0,0,3.84,5.85.85.85,0,0,0-.14.11c-1.26,1.21-7.57,3.22-10.72,4.31a25.15,25.15,0,0,1-3.77.79c-5.62-4.55-7.9-9.19-8.9-12.54,5.67.64,14,.47,14.5.55A46.35,46.35,0,0,0,1771.09,476.93Z" transform="translate(482.17 -188.67)"/><path class="cls-1" d="M1802.5,485.19a25.34,25.34,0,0,0,3.65-2.93c.43-.42.81-.84,1.18-1.27.54,2.3,5.88,7.64,6,7.91s.17.43.32.82c-2.83,2.48-5.76,5.16-9.9,7-.47-1.27-.89-2.63-1.21-3.55C1802.06,491.73,1802.35,487.14,1802.5,485.19Z" transform="translate(482.17 -188.67)"/><path class="cls-1" d="M1792.38,489a25.74,25.74,0,0,0,4.13-.92,1.87,1.87,0,0,1,.25,1.56c-.57,1.59.83,6.53,1.48,8.81a38.31,38.31,0,0,1-12.19.07c.36-.78.72-1.53,1-2.1C1787.65,495,1791.14,490.53,1792.38,489Z" transform="translate(482.17 -188.67)"/><path class="cls-1" d="M1788.85,471a35,35,0,0,1,1.21,6,15.64,15.64,0,0,1-3.41.12,22.49,22.49,0,0,1-3-.41,1.33,1.33,0,0,1,.56-.94c.83-.52,1.9-2.78,2.65-4.52A5.9,5.9,0,0,0,1788.85,471Z" transform="translate(482.17 -188.67)"/><path class="cls-1" d="M1813.82,322.43c-1.93,1-11.27,1.86-15.93,2.4s-25.24-.69-25.24-.69,0,.08,0,.2c-1.13-2.3-2.28-4.36-3.42-6.25,5.73.34,7.67-4.58,14-4.48s23-4,23.87-4.05c1.09-.11,7.9-.34,10.11-1.47,2.31,2.88,4.71,6.12,7.14,9.79.75,1.28,1.42,2.54,2,3.8l-.41-.31S1815.74,321.43,1813.82,322.43Z" transform="translate(482.17 -188.67)"/><path class="cls-1" d="M1768.06,464.13c0,.13,0,.26,0,.39,0,.36.06.7.09,1.05a25.92,25.92,0,0,0-.55,2.74c-1.85-.1-3.78-.1-4.52.27-1.57.78-8.19.78-11.52.87a13.2,13.2,0,0,1-1.4-.07,104.22,104.22,0,0,1-1.41-11.89c5.15,2.25,14.87,4.54,15.35,4.76S1766.29,463.41,1768.06,464.13Z" transform="translate(482.17 -188.67)"/><path class="cls-1" d="M1783.73,488.66a23.73,23.73,0,0,0,2.81.42c-.14,1.33,0,2.79-1.17,3.91a25.38,25.38,0,0,0-3.12,4.86c-1.9-.38-3.92-.84-6.08-1.44a64.46,64.46,0,0,1-8.77-3.8c5.38-1.24,11.87-3.44,12.3-3.5S1782,489,1783.73,488.66Z" transform="translate(482.17 -188.67)"/><path class="cls-1" d="M1800.16,303.86c-1.63,1.12-10,3-14.2,4-3.49.86-18,1.9-22,2.18a69.17,69.17,0,0,1-3.69-6,30.87,30.87,0,0,1-1.47-3.28c6.62,2.63,7.47-4.25,13.08-4.4,4.67-.13,17.39-4.82,18-4.93,1-.17,7.71-.78,8.13-2.46a148.42,148.42,0,0,1,14,13.1c-.62-.39-1-.58-1-.58S1801.8,302.73,1800.16,303.86Z" transform="translate(482.17 -188.67)"/><path class="cls-1" d="M1776.83,407.53c-1.74-.13-7.44-3.51-10.35-5.13a16.25,16.25,0,0,1-1.82-1.27l.35-.51c2-2.94,3.73-5.45,5.32-7.88,2,.29,4,.58,5.57,2.39,2.72,3.23,12.92,9.09,14.84,10.29-2.75,2.73-4.89,5-6.59,6.93,0-.25,0-.39,0-.39S1778.58,407.65,1776.83,407.53Z" transform="translate(482.17 -188.67)"/><path class="cls-1" d="M1767.83,448.83l.19.15q-.19,3-.21,6.29c-1.79-.57-3.72-1.08-4.54-.9-1.71.36-8.12-1.31-11.37-2.05a22.48,22.48,0,0,1-3-1.06c.12-3.56.27-7.78.57-10.18.12-.9.31-2,.54-3.17a5.67,5.67,0,0,1,2,1.37C1755.22,442.58,1767.33,448.45,1767.83,448.83Z" transform="translate(482.17 -188.67)"/><path class="cls-1" d="M1780.16,367.73c.17-1.1.3-2.17.41-3.23,5.2,3.23,9.65-.28,15.5,3.16,5.4,3.18,21.66,8,24.45,8.89a86.63,86.63,0,0,1-9.27,10.05c-3.11-1.07-9.81-4.67-13.43-6.52C1794.84,378.55,1785.12,371.42,1780.16,367.73Z" transform="translate(482.17 -188.67)"/><path class="cls-1" d="M1801.14,453.74a19.88,19.88,0,0,0-2-.81c-1.09-1.61-3.53-3.49-3-5,.38-1.11-.21-3.83-.84-6.15a21.9,21.9,0,0,1,14.33,4.1c-.59.92-1.19,1.8-1.61,2.46C1807,449.84,1801.93,453.22,1801.14,453.74Z" transform="translate(482.17 -188.67)"/><path class="cls-1" d="M1782.07,392.68a71.11,71.11,0,0,1-8-6.48c.48-1,1-2,1.38-3.1a43.85,43.85,0,0,0,2.33-5.6c4.22,3.05,8.91,1.13,13.62,5.32,2.68,2.4,8.78,6,14,8.93-3.39,3-6.35,5.73-8.94,8.15-1.54-1-3.23-2-4-2.09C1790.67,397.68,1785,394.3,1782.07,392.68Z" transform="translate(482.17 -188.67)"/><path class="cls-1" d="M1774.55,462.21a31.74,31.74,0,0,1,2.56-8.09s.22-.39.65-1c1.15.88,2.33,1.89,3.13,2.55s2.37,3.24,3.42,5.17a11.54,11.54,0,0,0-.5,1.42C1781.89,461.47,1776.36,462.05,1774.55,462.21Z" transform="translate(482.17 -188.67)"/><path class="cls-1" d="M1758.07,436.46a56.07,56.07,0,0,1-6.63-4.66c.66-2.6,1.37-5.09,2-6.79.24-.72.59-1.62,1-2.63,3.9,3.83,13,9.64,13.43,10s1.36,1.46,2.57,2.59a52.28,52.28,0,0,0-1.42,6,1.05,1.05,0,0,0-.24,0C1767,440.92,1761.08,437.89,1758.07,436.46Z" transform="translate(482.17 -188.67)"/><path class="cls-1" d="M1801.79,363.73c-3.45-1-15.75-6.78-20.84-9.21-.06-2.52-.23-4.52-.35-5.75,7.05,3.69,10.51-2,17.71.09,6.43,1.89,25.4,2.53,26.29,2.69.72.13,3.75.83,6.58,1.23a79.27,79.27,0,0,1-2.38,10.63,26.69,26.69,0,0,1-3.41,6.42c-2.9-1.07-6.69-2.35-8-2.25C1815.28,367.77,1806.31,365,1801.79,363.73Z" transform="translate(482.17 -188.67)"/><path class="cls-1" d="M1793.43,472.23c.12-.92-.83-3-1.68-4.63.74-1,1.76-1.76,3.06-1,2.73,1.52,3,5.37.47,8C1794.32,473.81,1793.32,473.07,1793.43,472.23Z" transform="translate(482.17 -188.67)"/><path class="cls-1" d="M1807.85,460.23c-.28-.49-.54-.94-.8-1.34.33-1.65.63-3.42,1.74-3.79,1.32-.44,3.57-3.29,5.1-5.37a31.07,31.07,0,0,1,3.93,5.5,29.33,29.33,0,0,1,3.14,10.5c-1.24-.33-2.5-.73-3.38-1C1815.93,464.27,1809.32,461,1807.85,460.23Z" transform="translate(482.17 -188.67)"/><path class="cls-1" d="M1790.41,453.09a7.89,7.89,0,0,0-2.32,2l-.41.52c-.39-1.77-4.68-5.57-6.23-7a24.11,24.11,0,0,1,8.31-5.66l.53,1.51C1790.87,446.09,1790.5,451.87,1790.41,453.09Z" transform="translate(482.17 -188.67)"/><path class="cls-1" d="M1782.53,471a20.73,20.73,0,0,1-3.18,4.15,9.55,9.55,0,0,1-4.86-7c1.64-.36,3.74-.59,5-.77a14.1,14.1,0,0,1,3.82.46,5.88,5.88,0,0,0,.08.64C1783.11,469.39,1782.76,470.32,1782.53,471Z" transform="translate(482.17 -188.67)"/><path class="cls-3" d="M1762.56,325.33s-11.93,5.46-22.66-2-25.89-14.5-25.89-14.5-3.24-1.19-3.58,1.2,21,14.8,23.85,17.22c1.22,1,.76,1.94.43,2.32-.51.6-.3,1.36-7.12.13s-7.49-1.57-12.45-1.73c-6.07-.19-5,3.9-1.79,5.14,1.6.77,5.39,1.58,12.26,2.26,6.61.19,9.38.12,10.82.64.18.06,3.3,1.23.53,2.55s-8.51,2.05-8.51,2.05-13.22,1.63-17.57,2.49c-1.61.33-4.75,1.23-5.85,3-.94,1.53-.43,2.75,6.66,2.75s25-1.16,26.64-1.28c1.87-.14,7.47.62,1.23,5.39a61.43,61.43,0,0,1-12.56,4.61s-3.59,1.7-4.39,3.45c-.87,1.92-2.68,4.61,2.66,5.33s13.27-5.63,13.42-5.65,5.72-2.47,7.75-2.41c1.68.05,3.36,1.28-2.81,6.14s-16.46,13-16.46,13-4.86,4.52-1.53,6.18,14.94-6.39,14.94-6.39l13.67-9.76s5.11-2.47,3,2.13-17.67,18.46-11.11,19.91,10.31-1.2,25.85-15.48c3.15-14.83,3-19.22,2.47-29.71s-6-17.56-7.92-17.82A11.57,11.57,0,0,0,1762.56,325.33Z" transform="translate(482.17 -188.67)"/><path class="cls-3" d="M1778.82,230.29s-6-3.45-10-3.45c-1.76,3.39-3.55,6.87-4.19,6.87s-6.16,1.47-6.89,5.12,11.36,4.63,11.36,4.63S1780.55,231.16,1778.82,230.29Z" transform="translate(482.17 -188.67)"/><path class="cls-3" d="M1767.69,245.39s-8.66-1.66-9.71-3.55-2.59,2.43-2.59,2.43-3.26,12.82-6,12.34c4.64,1.51,3.52,2,10.77,2.72C1762.54,256.52,1768.61,247.63,1767.69,245.39Z" transform="translate(482.17 -188.67)"/><path class="cls-3" d="M1761.13,262.17s-6.71,1.08-10.44-2.94c-2.37,3.45-3.59,3.61-3,8.77.56,1.28.94,4.69,0,5.67a4.28,4.28,0,0,0-.94,4.47c.69,1.62.47,3.45,5,3.37s5.7-3.24,5.7-3.24,3.79-10.57,3.37-10.57S1761.13,262.17,1761.13,262.17Z" transform="translate(482.17 -188.67)"/><path class="cls-3" d="M1758.43,301.27s-3.08,3.4-10.74,2.63c1.47,4.36,2.07,11.16,5.51,17.42,5.58,1.64,9.56,2.62,9.52-5.77s-2.13-12.62-2.64-13.37Z" transform="translate(482.17 -188.67)"/><path class="cls-3" d="M1776.35,380.45s-6.13-.77-7.09.64-8.24,7.74-8.24,12.6,5.43,6,6.07,5.24C1770.48,394.86,1777.69,382.05,1776.35,380.45Z" transform="translate(482.17 -188.67)"/><path class="cls-3" d="M1765.3,401.87a10.61,10.61,0,0,0-8.11-.51c-1,5.18-3,14.42-5.24,15.92-.32,1.06-.19,3.84,5.62,4.48C1762,417,1766.58,409.22,1765.3,401.87Z" transform="translate(482.17 -188.67)"/><path class="cls-3" d="M1757.47,425.21s-4-2.75-6-1.92c-.51,2-.32,3.77-1.85,7.61s-1.92.77-2.43,8c5.94,1.15,5.69.77,6.77-.32S1758.36,426,1757.47,425.21Z" transform="translate(482.17 -188.67)"/><path class="cls-3" d="M1751.76,442.54s-3.45-1.92-6.32,0c-.13,4.79-.77,11.44,3.06,12.53S1753.61,443.43,1751.76,442.54Z" transform="translate(482.17 -188.67)"/><path class="cls-3" d="M1747.74,458.4s5-1.16,5,4.34.19,5.76.19,5.76-1.41,4.15-4.09-.83A12,12,0,0,1,1747.74,458.4Z" transform="translate(482.17 -188.67)"/><path class="cls-3" d="M1750.18,472.29l3.45.39s4.41,3.83,3.52,7.16-3.9.19-3.9.19A10.1,10.1,0,0,1,1750.18,472.29Z" transform="translate(482.17 -188.67)"/><path class="cls-3" d="M1758,483.87s2.87-2.11,5.56,1.91c.89,4.16-1.38,3.17-1.38,3.17s-3.45-.8-4.08-3.49A9.54,9.54,0,0,1,1758,483.87Z" transform="translate(482.17 -188.67)"/><path class="cls-3" d="M1756.42,282.23s-8.85,4-11.28.43c-.77,4.77,0,6,0,6s4.68,6.4,4.51,11.09c2,.81,1.83,2.68,7.41-2.3C1756.76,292,1757.87,290.85,1756.42,282.23Z" transform="translate(482.17 -188.67)"/><path class="cls-1" d="M1220.14,657.68c2.38,1.4,6.92-1.06,7.14-1.22s1.21-.73,1.29-1.22c2-4.17-.76-7.34-3.11-10.43,5.8,4,5.09,8.56,5.09,8.56s-1.17,5.86-1.58,6.78a17.1,17.1,0,0,1-2.78,3.19,10.71,10.71,0,0,1,2.83.95,20.71,20.71,0,0,0,3.73,1.58c1.07.39,6.08,1.07,6.08,1.07v0c.48-1.63.88-3.33,1.08-4.36.36-1.88-1-7.06-1.31-8.51-.08-.34-1.92-3.65-1.92-3.65s-.43-1-.52-1.27a21.06,21.06,0,0,1-.67-3.71c.08-.34,1-1,2.8-2,.82-2.18-1.41-1.71-1.41-1.71s-2.84,1.42-3.09.78-.32-.58.31-1.62c2.24-3.42,1-3.78,1-3.78s-.37-.5-1.62-.58-2.42,3.33-3.3,3.39-1.19-2.44-1-3.94-1.4-1.87-1.86-2-1-.25-.88,2,0,1.84-.29,2.24c-.81.39-1.46-2.65-1.94-3.69.57-.41-2.94-2.37-2.2.93s-.17,2.94-.89,3.53c-.32,3.78-1.51,3.84-3.62,3.36s-2.41.45-2.89,2.26c-2.29,4-1.33,2.32-5.56,5,1.82,1.61.57.81,1.25,1.28-.62.89-7.93,3.84-8.65,3.39a1.58,1.58,0,0,0-1.49,0l-.23.43c-.42.74,1.46,3.24,1.46,3.24a1.88,1.88,0,0,0,1.81-.33c2.35-1.37,11.12-2,11.12-2A29.7,29.7,0,0,0,1220.14,657.68Z" transform="translate(482.17 -188.67)"/><path class="cls-1" d="M1200.17,654.44h0C1200.26,654.29,1200.17,654.44,1200.17,654.44Z" transform="translate(482.17 -188.67)"/><path class="cls-1" d="M1212.76,684.6a21,21,0,0,1,4.23-.25,34.09,34.09,0,0,0,5.62,0c1.48,0,7.72-1.31,8.58-1.49.11-.39.24-.84.4-1.35.09-.3.2-.58.3-.86-2.68,1-3.59-1.2-6.2-.83-2.32.33-8.9-.4-9.22-.4a26.73,26.73,0,0,1-3.13.07,18.45,18.45,0,0,0-.79,5.29Z" transform="translate(482.17 -188.67)"/><path class="cls-1" d="M1237.75,710.65a7.63,7.63,0,0,0,1-.78c-.61-1.36-1.28-2.8-1.7-3.69a50.2,50.2,0,0,1-4.82,3.2c-.15.12-.74.71-1.32,1.15.73,1.12.93,1.79,1.67,2.77l.17.25a4.94,4.94,0,0,1,1.53-.92A18.91,18.91,0,0,0,1237.75,710.65Z" transform="translate(482.17 -188.67)"/><path class="cls-1" d="M1218.72,732.4a11,11,0,0,0,1.21-2.34,5.76,5.76,0,0,1,0-2.71.56.56,0,0,0-.31.2c-.43.62-3.12,1.41-3.21,1.48l-.22.18a10.28,10.28,0,0,0,1.17,4.45C1217.86,733.28,1218.39,732.73,1218.72,732.4Z" transform="translate(482.17 -188.67)"/><path class="cls-1" d="M1233.71,730.85a8.37,8.37,0,0,1-1.33,2l0,0a18.83,18.83,0,0,0,3.73,1.5,10.4,10.4,0,0,0,1.32.28,8.92,8.92,0,0,0,3.11-4.38c-2,.23-4.9.17-5.06.2S1234.46,730.78,1233.71,730.85Z" transform="translate(482.17 -188.67)"/><path class="cls-1" d="M1222.75,733.73a9,9,0,0,1-1.27-1c-.15-.15-.28-.3-.41-.44-.19.8-2,2.66-2.1,2.75s-.06.15-.11.29a13.43,13.43,0,0,0,3.45,2.44c.17-.45.31-.92.42-1.24A10.7,10.7,0,0,0,1222.75,733.73Z" transform="translate(482.17 -188.67)"/><path class="cls-1" d="M1226.28,735a8.16,8.16,0,0,1-1.44-.32.7.7,0,0,0-.09.55c.21.55-.28,2.27-.51,3.07a13.27,13.27,0,0,0,4.25,0c-.12-.27-.25-.53-.34-.73A24.74,24.74,0,0,0,1226.28,735Z" transform="translate(482.17 -188.67)"/><path class="cls-1" d="M1227.52,728.77a13.05,13.05,0,0,0-.43,2.08,5.19,5.19,0,0,0,1.2,0,6.4,6.4,0,0,0,1-.14.49.49,0,0,0-.2-.33,4.49,4.49,0,0,1-.92-1.57A2.12,2.12,0,0,1,1227.52,728.77Z" transform="translate(482.17 -188.67)"/><path class="cls-1" d="M1218.8,677a34.84,34.84,0,0,0,5.56.84c1.58.18,8.81-.24,8.81-.24v.07c.39-.8.79-1.52,1.19-2.18-2,.12-2.68-1.6-4.87-1.56s-8-1.39-8.33-1.41a14.11,14.11,0,0,1-3.53-.52c-.81,1-1.64,2.14-2.49,3.42-.26.44-.5.88-.71,1.32l.14-.11A21.08,21.08,0,0,1,1218.8,677Z" transform="translate(482.17 -188.67)"/><path class="cls-1" d="M1234.77,726.39v.13l0,.37c.1.42.16.74.19,1a4.45,4.45,0,0,1,1.58.1,18.69,18.69,0,0,0,4,.3,3,3,0,0,0,.5,0,40.24,40.24,0,0,0,.49-4.15,50.6,50.6,0,0,1-5.36,1.66C1236,725.8,1235.39,726.14,1234.77,726.39Z" transform="translate(482.17 -188.67)"/><path class="cls-1" d="M1229.3,734.94a8.24,8.24,0,0,1-1,.15,2,2,0,0,0,.41,1.36,8.4,8.4,0,0,1,1.09,1.69c.66-.13,1.37-.29,2.12-.5a23,23,0,0,0,3.06-1.32c-1.87-.44-4.14-1.2-4.29-1.22S1229.93,735,1229.3,734.94Z" transform="translate(482.17 -188.67)"/><path class="cls-1" d="M1223.57,670.51a31.31,31.31,0,0,0,5,1.39c1.21.3,6.27.67,7.67.76.48-.71.91-1.38,1.29-2.08a11.54,11.54,0,0,0,.51-1.14c-2.31.91-2.61-1.48-4.57-1.54-1.63,0-6.07-1.68-6.28-1.71s-2.69-.28-2.84-.86a51.66,51.66,0,0,0-4.88,4.56l.35-.2A19,19,0,0,1,1223.57,670.51Z" transform="translate(482.17 -188.67)"/><path class="cls-1" d="M1231.71,706.65a18,18,0,0,0,3.61-1.79,4.67,4.67,0,0,0,.64-.44l-.12-.17c-.69-1-1.3-1.91-1.86-2.75a2.8,2.8,0,0,0-1.94.83c-1,1.12-4.51,3.17-5.18,3.59,1,1,1.7,1.74,2.3,2.41v-.13A10.68,10.68,0,0,1,1231.71,706.65Z" transform="translate(482.17 -188.67)"/><path class="cls-1" d="M1234.85,721.05l-.06.06c0,.69.07,1.42.07,2.19a4.56,4.56,0,0,1,1.59-.32,18.52,18.52,0,0,0,4-.71,7.6,7.6,0,0,0,1-.37c0-1.24-.1-2.71-.2-3.55,0-.31-.11-.69-.19-1.1a2.09,2.09,0,0,0-.71.47C1239.25,718.88,1235,720.92,1234.85,721.05Z" transform="translate(482.17 -188.67)"/><path class="cls-1" d="M1230.55,692.78c-.06-.39-.11-.76-.14-1.13-1.82,1.13-3.37-.1-5.41,1.1s-7.56,2.78-8.54,3.1a30.21,30.21,0,0,0,3.24,3.51c1.09-.38,3.42-1.63,4.69-2.28C1225.43,696.55,1228.82,694.06,1230.55,692.78Z" transform="translate(482.17 -188.67)"/><path class="cls-1" d="M1223.23,722.76a6.38,6.38,0,0,1,.7-.28c.38-.56,1.23-1.21,1-1.74a5.08,5.08,0,0,1,.29-2.14,7.65,7.65,0,0,0-5,1.42c.2.32.41.63.56.86A13,13,0,0,0,1223.23,722.76Z" transform="translate(482.17 -188.67)"/><path class="cls-1" d="M1229.89,701.48a25.49,25.49,0,0,0,2.77-2.26c-.17-.35-.33-.7-.48-1.08a15,15,0,0,1-.81-2c-1.48,1.07-3.11.4-4.76,1.86a35.14,35.14,0,0,1-4.87,3.11c1.18,1.06,2.22,2,3.12,2.84a4.39,4.39,0,0,1,1.41-.73A18.8,18.8,0,0,0,1229.89,701.48Z" transform="translate(482.17 -188.67)"/><path class="cls-1" d="M1232.51,725.72a11,11,0,0,0-.89-2.82s-.08-.14-.23-.36c-.4.3-.81.66-1.1.89a8.43,8.43,0,0,0-1.19,1.8,3.28,3.28,0,0,1,.17.5A10.67,10.67,0,0,1,1232.51,725.72Z" transform="translate(482.17 -188.67)"/><path class="cls-1" d="M1238.26,716.74a20.54,20.54,0,0,0,2.31-1.62c-.23-.91-.47-1.78-.68-2.37-.08-.25-.2-.57-.34-.92a46.92,46.92,0,0,1-4.69,3.5c-.11.1-.47.5-.9.9a18.15,18.15,0,0,1,.5,2.08h.08A18.47,18.47,0,0,0,1238.26,716.74Z" transform="translate(482.17 -188.67)"/><path class="cls-1" d="M1223,691.38c1.21-.34,5.5-2.36,7.27-3.21,0-.88.08-1.57.13-2-2.46,1.29-3.67-.7-6.18,0-2.25.66-8.87.88-9.18.94s-1.31.29-2.3.43a28.24,28.24,0,0,0,.83,3.7,9.49,9.49,0,0,0,1.2,2.24,10.77,10.77,0,0,1,2.77-.78A35.15,35.15,0,0,0,1223,691.38Z" transform="translate(482.17 -188.67)"/><path class="cls-1" d="M1225.92,729.21a4.27,4.27,0,0,1,.58-1.61c-.25-.35-.61-.62-1.06-.37a1.72,1.72,0,0,0-.17,2.78C1225.61,729.76,1226,729.5,1225.92,729.21Z" transform="translate(482.17 -188.67)"/><path class="cls-1" d="M1220.89,725c.09-.17.19-.33.27-.47-.11-.58-.21-1.19-.6-1.32a6.37,6.37,0,0,1-1.78-1.88,10.67,10.67,0,0,0-1.37,1.92,10.16,10.16,0,0,0-1.1,3.66c.43-.11.87-.25,1.18-.34C1218.07,726.44,1220.37,725.29,1220.89,725Z" transform="translate(482.17 -188.67)"/><path class="cls-1" d="M1227,722.54a2.58,2.58,0,0,1,.81.68l.14.19c.14-.62,1.64-1.95,2.18-2.44a8.57,8.57,0,0,0-2.9-2c-.07.2-.13.38-.19.53A13.27,13.27,0,0,0,1227,722.54Z" transform="translate(482.17 -188.67)"/><path class="cls-1" d="M1229.72,728.77a7.91,7.91,0,0,0,1.11,1.45,3.34,3.34,0,0,0,1.7-2.43c-.57-.13-1.3-.21-1.76-.27a5.06,5.06,0,0,0-1.33.16,1.46,1.46,0,0,1,0,.22C1229.52,728.22,1229.64,728.55,1229.72,728.77Z" transform="translate(482.17 -188.67)"/><path class="cls-3" d="M1236.69,678a8.51,8.51,0,0,0,7.91-.71,71,71,0,0,1,9-5s1.13-.42,1.25.41-7.31,5.17-8.33,6c-.42.35-.26.67-.15.81s.11.47,2.49,0a22.68,22.68,0,0,1,4.34-.6c2.12-.07,1.75,1.36.63,1.79a15.78,15.78,0,0,1-4.28.79,19.45,19.45,0,0,0-3.78.22c-.06,0-1.15.43-.18.89a12.66,12.66,0,0,0,3,.72s4.61.56,6.13.87a3.37,3.37,0,0,1,2,1.05c.33.53.15,1-2.32,1s-8.73-.4-9.3-.44-2.61.21-.43,1.88a21.53,21.53,0,0,0,4.38,1.6s1.26.6,1.54,1.2.93,1.61-.93,1.86-4.63-2-4.68-2a12.39,12.39,0,0,0-2.71-.84c-.59,0-1.17.45,1,2.14l5.75,4.54s1.69,1.57.53,2.15-5.22-2.23-5.22-2.23l-4.77-3.4s-1.78-.86-1,.74,6.17,6.44,3.88,6.94-3.6-.41-9-5.39a31.44,31.44,0,0,1-.87-10.36c.18-3.66,2.11-6.13,2.77-6.21A4,4,0,0,1,1236.69,678Z" transform="translate(482.17 -188.67)"/><path class="cls-3" d="M1231,644.86a9.3,9.3,0,0,1,3.48-1.21c.61,1.19,1.23,2.4,1.46,2.4s2.15.51,2.4,1.79-4,1.61-4,1.61S1230.42,645.16,1231,644.86Z" transform="translate(482.17 -188.67)"/><path class="cls-3" d="M1234.9,650.12s3-.58,3.39-1.23.91.84.91.84,1.13,4.47,2.1,4.31a10.29,10.29,0,0,1-3.75.94C1236.7,654,1234.58,650.9,1234.9,650.12Z" transform="translate(482.17 -188.67)"/><path class="cls-3" d="M1237.19,656s2.34.38,3.65-1c.82,1.2,1.25,1.26,1,3-.19.45-.33,1.64,0,2a1.49,1.49,0,0,1,.32,1.56c-.23.57-.16,1.21-1.74,1.18a2.06,2.06,0,0,1-2-1.13,35,35,0,0,1-1.17-3.69A8.36,8.36,0,0,0,1237.19,656Z" transform="translate(482.17 -188.67)"/><path class="cls-3" d="M1238.13,669.61s1.08,1.18,3.75.91c-.51,1.52-.72,3.89-1.92,6.08-2,.57-3.33.91-3.32-2a9.38,9.38,0,0,1,.92-4.66Z" transform="translate(482.17 -188.67)"/><path class="cls-3" d="M1231.88,697.21s2.14-.27,2.47.22,2.88,2.7,2.88,4.4-1.9,2.09-2.12,1.82C1233.93,702.23,1231.41,697.77,1231.88,697.21Z" transform="translate(482.17 -188.67)"/><path class="cls-3" d="M1235.74,704.68a3.74,3.74,0,0,1,2.83-.18c.35,1.81,1,5,1.83,5.55.11.37.06,1.34-2,1.56C1236.9,709.94,1235.29,707.24,1235.74,704.68Z" transform="translate(482.17 -188.67)"/><path class="cls-3" d="M1238.47,712.82s1.41-1,2.1-.67a12.11,12.11,0,0,0,.64,2.65c.54,1.34.67.27.85,2.79-2.07.4-2,.27-2.36-.11S1238.16,713.11,1238.47,712.82Z" transform="translate(482.17 -188.67)"/><path class="cls-3" d="M1240.46,718.86a2.31,2.31,0,0,1,2.21,0c0,1.67.27,4-1.07,4.37S1239.82,719.17,1240.46,718.86Z" transform="translate(482.17 -188.67)"/><path class="cls-3" d="M1241.87,724.39a1.37,1.37,0,0,0-1.74,1.51,7.64,7.64,0,0,1-.07,2s.49,1.45,1.43-.29A4.21,4.21,0,0,0,1241.87,724.39Z" transform="translate(482.17 -188.67)"/><path class="cls-3" d="M1241,729.23l-1.2.14s-1.54,1.33-1.23,2.49,1.36.07,1.36.07A3.52,3.52,0,0,0,1241,729.23Z" transform="translate(482.17 -188.67)"/><path class="cls-3" d="M1238.28,733.27s-1-.74-1.94.67c-.31,1.45.48,1.1.48,1.1s1.2-.28,1.42-1.22A3.08,3.08,0,0,0,1238.28,733.27Z" transform="translate(482.17 -188.67)"/><path class="cls-3" d="M1238.84,663s3.09,1.38,3.93.15c.27,1.66,0,2.11,0,2.11s-1.64,2.23-1.58,3.86c-.71.28-.64.94-2.58-.8C1238.72,666.36,1238.33,666,1238.84,663Z" transform="translate(482.17 -188.67)"/><path class="cls-2" d="M1220.14,797.28c2.38,1.4,6.92-1.06,7.14-1.22s1.21-.74,1.29-1.23c2-4.16-.76-7.33-3.11-10.42,5.8,4,5.09,8.56,5.09,8.56s-1.17,5.85-1.58,6.78a17.1,17.1,0,0,1-2.78,3.19,11,11,0,0,1,2.83.94,20,20,0,0,0,3.73,1.58,60.39,60.39,0,0,0,6.08,1.08v0c.48-1.64.88-3.33,1.08-4.37.36-1.87-1-7.05-1.31-8.5-.08-.34-1.92-3.65-1.92-3.65s-.43-1-.52-1.27a21.06,21.06,0,0,1-.67-3.71c.08-.34,1-1,2.8-2,.82-2.18-1.41-1.71-1.41-1.71s-2.84,1.41-3.09.77-.32-.58.31-1.62c2.24-3.41,1-3.77,1-3.77s-.37-.51-1.62-.58-2.42,3.33-3.3,3.39-1.19-2.44-1-3.94-1.4-1.87-1.86-1.95-1-.25-.88,2,0,1.84-.29,2.24c-.81.38-1.46-2.65-1.94-3.69.57-.41-2.94-2.38-2.2.92s-.17,2.95-.89,3.54c-.32,3.78-1.51,3.83-3.62,3.36s-2.41.45-2.89,2.26c-2.29,4-1.33,2.32-5.56,5,1.82,1.61.57.8,1.25,1.28-.62.89-7.93,3.83-8.65,3.39a1.58,1.58,0,0,0-1.49,0l-.23.43c-.42.74,1.46,3.24,1.46,3.24a1.88,1.88,0,0,0,1.81-.33c2.35-1.37,11.12-2,11.12-2A30.46,30.46,0,0,0,1220.14,797.28Z" transform="translate(482.17 -188.67)"/><path class="cls-2" d="M1200.17,794h0C1200.26,793.89,1200.17,794,1200.17,794Z" transform="translate(482.17 -188.67)"/><path class="cls-2" d="M1212.76,824.2s3.52-.5,4.23-.25a34.09,34.09,0,0,0,5.62,0c1.48-.05,7.72-1.31,8.58-1.49.11-.4.24-.84.4-1.36.09-.29.2-.57.3-.85-2.68,1-3.59-1.2-6.2-.83-2.32.32-8.9-.41-9.22-.4a25.14,25.14,0,0,1-3.13.06,18.57,18.57,0,0,0-.79,5.3Z" transform="translate(482.17 -188.67)"/><path class="cls-2" d="M1237.75,850.25a7.63,7.63,0,0,0,1-.78c-.61-1.36-1.28-2.8-1.7-3.69a47.65,47.65,0,0,1-4.82,3.19c-.15.13-.74.72-1.32,1.16.73,1.12.93,1.79,1.67,2.76.06.08.11.17.17.26a4.94,4.94,0,0,1,1.53-.92A18.91,18.91,0,0,0,1237.75,850.25Z" transform="translate(482.17 -188.67)"/><path class="cls-2" d="M1218.72,872a11,11,0,0,0,1.21-2.34,5.76,5.76,0,0,1,0-2.71.51.51,0,0,0-.31.2c-.43.62-3.12,1.41-3.21,1.48l-.22.18a10.28,10.28,0,0,0,1.17,4.45C1217.86,872.88,1218.39,872.33,1218.72,872Z" transform="translate(482.17 -188.67)"/><path class="cls-2" d="M1233.71,870.45a8.78,8.78,0,0,1-1.33,2l0,0a18.19,18.19,0,0,0,3.73,1.51,9.16,9.16,0,0,0,1.32.27,8.86,8.86,0,0,0,3.11-4.37c-2,.22-4.9.16-5.06.19A15.82,15.82,0,0,1,1233.71,870.45Z" transform="translate(482.17 -188.67)"/><path class="cls-2" d="M1222.75,873.33a8.44,8.44,0,0,1-1.27-1,5.62,5.62,0,0,1-.41-.44c-.19.81-2,2.67-2.1,2.76s-.06.15-.11.29a13.17,13.17,0,0,0,3.45,2.43c.17-.44.31-.91.42-1.23A10.7,10.7,0,0,0,1222.75,873.33Z" transform="translate(482.17 -188.67)"/><path class="cls-2" d="M1226.28,874.64a8.16,8.16,0,0,1-1.44-.32.68.68,0,0,0-.09.54c.21.56-.28,2.28-.51,3.08a13.57,13.57,0,0,0,4.25,0c-.12-.27-.25-.53-.34-.73A24.74,24.74,0,0,0,1226.28,874.64Z" transform="translate(482.17 -188.67)"/><path class="cls-2" d="M1227.52,868.36a13.13,13.13,0,0,0-.43,2.09,5.82,5.82,0,0,0,1.2,0,9.87,9.87,0,0,0,1-.14.47.47,0,0,0-.2-.33,4.58,4.58,0,0,1-.92-1.57A1.87,1.87,0,0,1,1227.52,868.36Z" transform="translate(482.17 -188.67)"/><path class="cls-2" d="M1218.8,816.58a36,36,0,0,0,5.56.84c1.58.18,8.81-.24,8.81-.24v.07c.39-.81.79-1.52,1.19-2.18-2,.12-2.68-1.6-4.87-1.57s-8-1.38-8.33-1.41a13.6,13.6,0,0,1-3.53-.51c-.81,1-1.64,2.14-2.49,3.41-.26.45-.5.89-.71,1.33l.14-.11A20.36,20.36,0,0,1,1218.8,816.58Z" transform="translate(482.17 -188.67)"/><path class="cls-2" d="M1234.77,866v.14l0,.37c.1.42.16.74.19,1a4.45,4.45,0,0,1,1.58.1,18.69,18.69,0,0,0,4,.3l.5,0a39.82,39.82,0,0,0,.49-4.14,53.2,53.2,0,0,1-5.36,1.66C1236,865.4,1235.39,865.73,1234.77,866Z" transform="translate(482.17 -188.67)"/><path class="cls-2" d="M1229.3,874.54a8.48,8.48,0,0,1-1,.14,2,2,0,0,0,.41,1.37,8.4,8.4,0,0,1,1.09,1.69c.66-.13,1.37-.29,2.12-.5a21.72,21.72,0,0,0,3.06-1.33c-1.87-.43-4.14-1.2-4.29-1.22S1229.93,874.64,1229.3,874.54Z" transform="translate(482.17 -188.67)"/><path class="cls-2" d="M1223.57,810.1a30.14,30.14,0,0,0,5,1.4c1.21.3,6.27.66,7.67.76.48-.71.91-1.39,1.29-2.08A11.54,11.54,0,0,0,1238,809c-2.31.91-2.61-1.49-4.57-1.54-1.63,0-6.07-1.68-6.28-1.72s-2.69-.27-2.84-.85a51.66,51.66,0,0,0-4.88,4.56l.35-.2A18.85,18.85,0,0,1,1223.57,810.1Z" transform="translate(482.17 -188.67)"/><path class="cls-2" d="M1231.71,846.25a18.61,18.61,0,0,0,3.61-1.79,4.67,4.67,0,0,0,.64-.44l-.12-.18c-.69-1-1.3-1.9-1.86-2.74a2.8,2.8,0,0,0-1.94.83c-1,1.12-4.51,3.17-5.18,3.58,1,1,1.7,1.75,2.3,2.42v-.14A10.38,10.38,0,0,1,1231.71,846.25Z" transform="translate(482.17 -188.67)"/><path class="cls-2" d="M1234.85,860.65l-.06.05c0,.7.07,1.43.07,2.2a4.56,4.56,0,0,1,1.59-.32,18.52,18.52,0,0,0,4-.71,7.6,7.6,0,0,0,1-.37c0-1.24-.1-2.72-.2-3.55,0-.31-.11-.69-.19-1.11a2,2,0,0,0-.71.48C1239.25,858.47,1235,860.52,1234.85,860.65Z" transform="translate(482.17 -188.67)"/><path class="cls-2" d="M1230.55,832.37c-.06-.38-.11-.75-.14-1.12-1.82,1.13-3.37-.1-5.41,1.1s-7.56,2.78-8.54,3.1a29.35,29.35,0,0,0,3.24,3.5,52.07,52.07,0,0,0,4.69-2.27C1225.43,836.15,1228.82,833.66,1230.55,832.37Z" transform="translate(482.17 -188.67)"/><path class="cls-2" d="M1223.23,862.36a6.38,6.38,0,0,1,.7-.28c.38-.56,1.23-1.22,1-1.74a5.14,5.14,0,0,1,.29-2.15,7.66,7.66,0,0,0-5,1.43c.2.32.41.63.56.86A13.42,13.42,0,0,0,1223.23,862.36Z" transform="translate(482.17 -188.67)"/><path class="cls-2" d="M1229.89,841.07a25.12,25.12,0,0,0,2.77-2.25c-.17-.35-.33-.71-.48-1.09a14.33,14.33,0,0,1-.81-2c-1.48,1.06-3.11.4-4.76,1.86a35.14,35.14,0,0,1-4.87,3.11c1.18,1,2.22,2,3.12,2.84a4.39,4.39,0,0,1,1.41-.73A18.36,18.36,0,0,0,1229.89,841.07Z" transform="translate(482.17 -188.67)"/><path class="cls-2" d="M1232.51,865.32a11,11,0,0,0-.89-2.82s-.08-.14-.23-.36c-.4.3-.81.65-1.1.88a8.54,8.54,0,0,0-1.19,1.81,3.58,3.58,0,0,1,.17.49A11,11,0,0,1,1232.51,865.32Z" transform="translate(482.17 -188.67)"/><path class="cls-2" d="M1238.26,856.34a19.65,19.65,0,0,0,2.31-1.63c-.23-.9-.47-1.77-.68-2.37-.08-.25-.2-.56-.34-.91a46.35,46.35,0,0,1-4.69,3.49c-.11.11-.47.51-.9.91a17.65,17.65,0,0,1,.5,2.08h.08A19.07,19.07,0,0,0,1238.26,856.34Z" transform="translate(482.17 -188.67)"/><path class="cls-2" d="M1223,831c1.21-.34,5.5-2.36,7.27-3.21,0-.88.08-1.58.13-2-2.46,1.29-3.67-.7-6.18,0-2.25.65-8.87.88-9.18.93s-1.31.29-2.3.43a28.13,28.13,0,0,0,.83,3.71,9.49,9.49,0,0,0,1.2,2.24,11.33,11.33,0,0,1,2.77-.79A33.83,33.83,0,0,0,1223,831Z" transform="translate(482.17 -188.67)"/><path class="cls-2" d="M1225.92,868.81a4.36,4.36,0,0,1,.58-1.62c-.25-.34-.61-.61-1.06-.36a1.72,1.72,0,0,0-.17,2.78C1225.61,869.36,1226,869.1,1225.92,868.81Z" transform="translate(482.17 -188.67)"/><path class="cls-2" d="M1220.89,864.63c.09-.18.19-.33.27-.47-.11-.58-.21-1.2-.6-1.33a6.31,6.31,0,0,1-1.78-1.87,10.33,10.33,0,0,0-1.37,1.92,10.16,10.16,0,0,0-1.1,3.66c.43-.11.87-.25,1.18-.34C1218.07,866,1220.37,864.88,1220.89,864.63Z" transform="translate(482.17 -188.67)"/><path class="cls-2" d="M1227,862.14a2.58,2.58,0,0,1,.81.68l.14.18c.14-.61,1.64-1.94,2.18-2.43a8.43,8.43,0,0,0-2.9-2c-.07.2-.13.38-.19.53A13.27,13.27,0,0,0,1227,862.14Z" transform="translate(482.17 -188.67)"/><path class="cls-2" d="M1229.72,868.37a7.91,7.91,0,0,0,1.11,1.45,3.34,3.34,0,0,0,1.7-2.43c-.57-.13-1.3-.21-1.76-.27a4.66,4.66,0,0,0-1.33.16,1.46,1.46,0,0,1,0,.22C1229.52,867.82,1229.64,868.14,1229.72,868.37Z" transform="translate(482.17 -188.67)"/><path class="cls-3" d="M1236.69,817.59a8.54,8.54,0,0,0,7.91-.71,69.59,69.59,0,0,1,9-5s1.13-.42,1.25.41-7.31,5.16-8.33,6c-.42.35-.26.67-.15.81s.11.47,2.49,0a21.91,21.91,0,0,1,4.34-.6c2.12-.07,1.75,1.36.63,1.79a15.78,15.78,0,0,1-4.28.79,18.6,18.6,0,0,0-3.78.22c-.06,0-1.15.43-.18.89a13.22,13.22,0,0,0,3,.72s4.61.56,6.13.86a3.39,3.39,0,0,1,2,1.06c.33.53.15,1-2.32,1s-8.73-.4-9.3-.45-2.61.22-.43,1.88a21.26,21.26,0,0,0,4.38,1.61s1.26.59,1.54,1.2.93,1.61-.93,1.86-4.63-2-4.68-2a11.86,11.86,0,0,0-2.71-.84c-.59,0-1.17.45,1,2.14l5.75,4.53s1.69,1.58.53,2.16-5.22-2.23-5.22-2.23l-4.77-3.4s-1.78-.87-1,.74,6.17,6.43,3.88,6.94-3.6-.42-9-5.4a31.38,31.38,0,0,1-.87-10.35c.18-3.66,2.11-6.13,2.77-6.22A4.06,4.06,0,0,1,1236.69,817.59Z" transform="translate(482.17 -188.67)"/><path class="cls-3" d="M1231,784.46a9.3,9.3,0,0,1,3.48-1.21c.61,1.18,1.23,2.4,1.46,2.4s2.15.51,2.4,1.78-4,1.62-4,1.62S1230.42,784.76,1231,784.46Z" transform="translate(482.17 -188.67)"/><path class="cls-3" d="M1234.9,789.72s3-.58,3.39-1.24.91.85.91.85,1.13,4.47,2.1,4.3a10.26,10.26,0,0,1-3.75,1C1236.7,793.6,1234.58,790.5,1234.9,789.72Z" transform="translate(482.17 -188.67)"/><path class="cls-3" d="M1237.19,795.57s2.34.38,3.65-1c.82,1.21,1.25,1.26,1,3.06-.19.45-.33,1.64,0,2a1.49,1.49,0,0,1,.32,1.56c-.23.56-.16,1.2-1.74,1.17a2.06,2.06,0,0,1-2-1.13,34.79,34.79,0,0,1-1.17-3.68A8.36,8.36,0,0,0,1237.19,795.57Z" transform="translate(482.17 -188.67)"/><path class="cls-3" d="M1238.13,809.2s1.08,1.19,3.75.92c-.51,1.52-.72,3.89-1.92,6.07-2,.57-3.33.92-3.32-2a9.38,9.38,0,0,1,.92-4.66Z" transform="translate(482.17 -188.67)"/><path class="cls-3" d="M1231.88,836.81s2.14-.27,2.47.22,2.88,2.7,2.88,4.39-1.9,2.1-2.12,1.83C1233.93,841.83,1231.41,837.37,1231.88,836.81Z" transform="translate(482.17 -188.67)"/><path class="cls-3" d="M1235.74,844.28a3.68,3.68,0,0,1,2.83-.18c.35,1.8,1,5,1.83,5.55.11.37.06,1.34-2,1.56C1236.9,849.54,1235.29,846.84,1235.74,844.28Z" transform="translate(482.17 -188.67)"/><path class="cls-3" d="M1238.47,852.41s1.41-.95,2.1-.66a12.11,12.11,0,0,0,.64,2.65c.54,1.34.67.27.85,2.79-2.07.4-2,.26-2.36-.12S1238.16,852.7,1238.47,852.41Z" transform="translate(482.17 -188.67)"/><path class="cls-3" d="M1240.46,858.46a2.31,2.31,0,0,1,2.21,0c0,1.67.27,4-1.07,4.37S1239.82,858.77,1240.46,858.46Z" transform="translate(482.17 -188.67)"/><path class="cls-3" d="M1241.87,864a1.37,1.37,0,0,0-1.74,1.52,7.64,7.64,0,0,1-.07,2s.49,1.45,1.43-.29A4.23,4.23,0,0,0,1241.87,864Z" transform="translate(482.17 -188.67)"/><path class="cls-3" d="M1241,868.83l-1.2.13s-1.54,1.34-1.23,2.5,1.36.07,1.36.07A3.52,3.52,0,0,0,1241,868.83Z" transform="translate(482.17 -188.67)"/><path class="cls-3" d="M1238.28,872.87s-1-.74-1.94.66c-.31,1.45.48,1.11.48,1.11s1.2-.28,1.42-1.22A3.08,3.08,0,0,0,1238.28,872.87Z" transform="translate(482.17 -188.67)"/><path class="cls-3" d="M1238.84,802.57s3.09,1.38,3.93.14c.27,1.67,0,2.12,0,2.12s-1.64,2.22-1.58,3.86c-.71.28-.64.94-2.58-.8C1238.72,806,1238.33,805.57,1238.84,802.57Z" transform="translate(482.17 -188.67)"/><text class="cls-4" transform="translate(1755.81 518.61)">PP<tspan class="cls-5" x="98.35" y="0">O</tspan><tspan x="155.52" y="0">.CAMPUS</tspan></text><text class="cls-6" transform="translate(1755.81 658.21)">PPOCAMPUS</text></g></svg>